<?xml version="1.0" encoding="UTF-8"?>
<svg width="210px" height="196px" viewBox="0 0 210 196" version="1.1" xmlns="http://www.w3.org/2000/svg" xmlns:xlink="http://www.w3.org/1999/xlink">
    <g id="Main" stroke="none" stroke-width="1" fill="none" fill-rule="evenodd">
        <g id="VV---Components" transform="translate(-145.000000, -1524.000000)" fill-rule="nonzero">
            <g id="eChart-Panel---Search-Patient" transform="translate(50.000000, 1278.000000)">
                <g id="Panel" transform="translate(0.000000, 60.000000)">
                    <g id="Illustration" transform="translate(24.000000, 80.000000)">
                        <g transform="translate(0.000000, 26.000000)">
                            <g transform="translate(71.000000, 80.000000)">
                                <g id="freepik--Floor--inject-289" transform="translate(0.000000, 75.088968)" fill="#00A5F5" fill-opacity="0.07">
                                    <path d="M30.7520711,17.707601 C-10.2506904,41.3154701 -10.2506904,79.5910305 30.7520711,103.203431 C71.7548325,126.815831 138.23892,126.8113 179.246225,103.203431 C220.25353,79.5955617 220.248986,41.3154701 179.246225,17.707601 C138.243464,-5.90026799 71.7593762,-5.90479925 30.7520711,17.707601 Z" id="freepik--floor--inject-289"></path>
                                </g>
                                <g id="freepik--window--inject-289" transform="translate(45.700994, 0.000000)">
                                    <path d="M117.383127,2.5157281 C117.382171,2.45549463 117.37143,2.39581404 117.351321,2.33900892 C117.351321,2.33900892 117.351321,2.31182136 117.351321,2.29822758 C117.346516,2.24005292 117.331119,2.18323882 117.305883,2.13057092 C117.283013,2.04288419 117.244538,1.96000605 117.19229,1.88588284 C117.180072,1.84642371 117.158213,1.81061089 117.128677,1.78166384 C117.113044,1.75709124 117.09476,1.73429918 117.074152,1.71369493 C117.037634,1.66591088 116.994843,1.62323726 116.946927,1.58681962 L116.946927,1.58681962 C116.896601,1.54962383 116.841609,1.51915669 116.783353,1.49619441 C116.351952,1.32754138 115.864182,1.38898505 115.488385,1.6593198 L4.38925837,65.4368163 C3.33056561,66.0485365 2.462705,67.5393213 2.462705,69.6780764 L2.462705,160.330481 C2.46134603,160.813323 2.72926637,161.256884 3.15790328,161.481421 L3.2396907,161.540328 L3.33965311,161.594703 C3.39152827,161.621002 3.44647202,161.640788 3.50322795,161.653609 C3.58530625,161.671613 3.66909364,161.680797 3.75313397,161.680797 C3.97802016,161.680797 4.19844586,161.618234 4.38925837,161.499546 L4.43923957,161.472359 L4.43923957,161.472359 L6.25673786,160.416575 L115.47021,97.6767372 C116.607831,96.9382225 117.323611,95.7025176 117.396769,94.3507917 L117.396769,2.75135366 C117.396769,2.67260867 117.392463,2.59392114 117.383127,2.5157281 L117.383127,2.5157281 Z" id="Path" fill="#FFFFFF"></path>
                                    <path d="M116.324434,1.93560154 C116.400164,1.9339514 116.475137,1.95108553 116.542534,1.98557058 L116.578884,1.98557058 L116.578884,1.98557058 L116.61069,2.00822688 L116.61069,2.00822688 L116.656128,2.07166453 L116.656128,2.07166453 L116.656128,2.07166453 L116.697021,2.13510219 C116.715006,2.15823501 116.728841,2.18429653 116.737915,2.21213362 L116.737915,2.21213362 L116.787896,2.36619649 L116.787896,2.36619649 L116.787896,2.36619649 L116.787896,2.39791532 C116.78996,2.41598191 116.78996,2.43422385 116.787896,2.45229045 C116.792573,2.51564236 116.792573,2.57925149 116.787896,2.6426034 L116.787896,94.3371979 C116.713625,95.4916967 116.103726,96.5456152 115.138517,97.187361 L6.00683185,159.936261 L4.21659603,160.946732 L4.21659603,160.946732 L4.16661483,160.978451 L4.11663362,161.005639 C4.01470196,161.06778 3.89949734,161.105041 3.78039644,161.114389 L3.75313397,161.114389 C3.71088124,161.118231 3.66816182,161.118231 3.62590909,161.114389 L3.58955912,161.114389 L3.53503417,161.08267 L3.49414046,161.055483 L3.46233424,161.055483 L3.46233424,161.055483 L3.46233424,161.055483 C3.21236655,160.924967 3.05634753,160.666233 3.05792878,160.384856 L3.05792878,159.360791 L3.05792878,159.360791 L3.05792878,69.6780764 C3.05792878,67.6027589 3.91216507,66.370256 4.71186431,65.9125986 L115.742835,2.1215084 C115.918228,2.01238787 116.118108,1.94853977 116.324434,1.93560154 M116.324434,1.38744415 C116.021949,1.39759188 115.727416,1.48664622 115.47021,1.64572601 L4.38925837,65.4368163 C3.32602187,66.0485365 2.462705,67.5393213 2.462705,69.6780764 L2.462705,159.909074 L2.462705,159.909074 L2.462705,160.330481 C2.46134603,160.813323 2.72926637,161.256884 3.15790328,161.481421 L3.2396907,161.540328 L3.33965311,161.594703 C3.39152827,161.621002 3.44647202,161.640788 3.50322795,161.653609 C3.58530625,161.671613 3.66909364,161.680797 3.75313397,161.680797 L3.78039644,161.680797 C3.99613776,161.672964 4.20605842,161.608911 4.38925837,161.495015 L4.43923957,161.467827 L4.43923957,161.467827 L6.25673786,160.412044 L115.47021,97.6767372 C116.607831,96.9382225 117.323611,95.7025176 117.396758,94.3507917 L117.396758,2.75135366 C117.401547,2.6728844 117.401547,2.59419736 117.396758,2.5157281 C117.395803,2.45549463 117.385061,2.39581404 117.364952,2.33900892 C117.364952,2.33900892 117.364952,2.31182136 117.364952,2.29822758 C117.360148,2.24005292 117.34475,2.18323882 117.319515,2.13057092 C117.296644,2.04288419 117.258169,1.96000605 117.205921,1.88588284 C117.193703,1.84642371 117.171844,1.81061089 117.142308,1.78166384 C117.126675,1.75709124 117.108391,1.73429918 117.087784,1.71369493 C117.051266,1.66591088 117.008474,1.62323726 116.960559,1.58681962 L116.960559,1.58681962 C116.910232,1.54962383 116.85524,1.51915669 116.796984,1.49619441 C116.655005,1.42967371 116.499426,1.39709191 116.342609,1.40103793 L116.324434,1.38744415 Z" id="Shape" fill="#9E9E9E"></path>
                                    <path d="M116.765178,1.48260062 C116.333777,1.3139476 115.846007,1.37539127 115.47021,1.64572601 L4.38925837,65.4368163 C3.25218594,66.1758498 2.53658203,67.4112508 2.46271018,68.7627617 L2.46271018,72.4874581 L0.00454374572,71.0510484 L0.00454374572,67.3716646 C0.0766307767,66.0219801 0.790809304,64.7878088 1.92654819,64.0502504 L113.012044,0.259160194 C113.419419,-0.0397506878 113.961135,-0.0836003896 114.411517,0.145878673 C114.756842,0.354316672 116.35624,1.2651001 116.765178,1.48260062 Z" id="Path" fill="#9E9E9E"></path>
                                    <path d="M117.392214,2.74229114 C117.392214,1.52791323 116.528903,1.03853706 115.47021,1.64572601 L4.38925837,65.4368163 C3.25218594,66.1758498 2.53658203,67.4112508 2.46271018,68.7627617 L2.46271018,72.4874581 L117.392214,6.48964386 L117.392214,2.74229114 Z" id="Path" fill="#9E9E9E"></path>
                                    <g id="Group" opacity="0.2" transform="translate(0.581599, 0.000013)" fill="#9E9E9E">
                                        <path d="M114.888611,1.64571349 L3.80765892,65.4368037 C3.24073424,65.789459 2.77195482,66.2787666 2.4445352,66.8596196 L0,65.4503975 C0.318751011,64.8768571 0.778422777,64.393501 1.33586124,64.0457066 L112.430444,0.254616408 C112.84006,-0.0382585492 113.378301,-0.0818268605 113.829918,0.141334886 C114.175243,0.354304146 115.770097,1.26055632 116.179034,1.50071314 C115.751397,1.33264347 115.268022,1.38695861 114.888611,1.64571349 Z" id="Path"></path>
                                    </g>
                                    <path d="M0,71.0555797 L0,67.3671334 C0.025749344,66.6884046 0.227715698,66.0279625 0.586143198,65.45041 L3.03522214,66.8551009 C2.68232477,67.430983 2.48507763,68.088228 2.46271018,68.7627617 L2.46271018,72.4874581 L0,71.0555797 Z" id="Path" fill="#000000" opacity="0.15"></path>
                                    <path d="M109.036266,7.24183316 C108.531123,7.60261098 108.227626,8.18103487 108.218392,8.8005869 C108.218392,9.39871333 108.581892,9.67512024 109.036266,9.41683837 C109.540255,9.05557942 109.842145,8.47700629 109.849597,7.85808464 C109.849597,7.25995821 109.486097,6.98355129 109.036266,7.24183316 Z" id="Path" fill="#FAFAFA"></path>
                                    <path d="M111.97607,5.54714161 C111.470927,5.90791942 111.167429,6.48634332 111.158195,7.10589534 C111.158195,7.70402177 111.526239,7.98042868 111.97607,7.72214681 C112.479533,7.35991534 112.782555,6.78239785 112.793944,6.16339308 C112.793944,5.56526665 112.4259,5.28885974 111.97607,5.54714161 Z" id="Path" fill="#FAFAFA"></path>
                                    <path d="M114.915873,3.85245005 C114.413161,4.2127647 114.111429,4.78935505 114.102543,5.40667252 C114.102543,6.00933021 114.466042,6.28573712 114.915873,6.02292399 C115.421437,5.66456524 115.725262,5.08720138 115.733747,4.46870152 C115.733747,3.86604383 115.370248,3.58963692 114.915873,3.85245005 Z" id="Path" fill="#FAFAFA"></path>
                                    <path d="M3.15335953,161.490484 L3.05339713,161.436109 L1.02688653,160.262512 C0.478639737,159.949751 0.107500903,159.400434 0.0227187286,158.776258 C0.00838651071,158.683278 0.000793925401,158.589389 0,158.49532 L0,71.0419859 L2.46271018,72.4783956 L2.46271018,160.32595 C2.45473953,160.770165 2.6828448,161.185486 3.06248462,161.417984 C3.07992858,161.434557 3.0998576,161.448316 3.12155331,161.458765 L3.12155331,161.458765 L3.15335953,161.490484 Z" id="Path" fill="#9E9E9E"></path>
                                    <path d="M3.15335953,161.490484 L3.05339713,161.436109 L1.02688653,160.262512 C0.478639737,159.949751 0.107500903,159.400434 0.0227187286,158.776258 C0.00838651071,158.683278 0.000793925401,158.589389 0,158.49532 L0,71.0419859 L2.46271018,72.4783956 L2.46271018,160.32595 C2.45473953,160.770165 2.6828448,161.185486 3.06248462,161.417984 C3.07992858,161.434557 3.0998576,161.448316 3.12155331,161.458765 L3.12155331,161.458765 L3.15335953,161.490484 Z" id="Path" fill="#9E9E9E" opacity="0.5"></path>
                                </g>
                                <g id="freepik--character--inject-289" transform="translate(100.534918, 44.561084)">
                                    <g id="freepik--bottom--inject-289" transform="translate(64.147646, 49.032987)">
                                        <polygon id="Path" fill="#263238" points="12.673463 64.2442163 11.3603205 63.6868712 12.6007631 63.265464"></polygon>
                                        <path d="M0.141812284,67.3209424 C0.141812284,67.3209424 14.836286,59.6495178 15.068017,60.6554577 C15.1193198,60.8553061 15.1286019,61.0635788 15.0952795,61.2671779 C15.0952795,61.2671779 15.1225419,61.2309279 15.1316294,61.2128028 L14.9635108,63.1295262 C14.3288618,63.7103514 13.5403302,64.097243 12.691638,64.2442163 C12.691638,64.1535911 12.6416568,63.5871835 12.618938,63.265464 C12.1634523,63.4828175 11.7311212,63.7454504 11.3285143,64.0493721 C10.4197651,64.742655 9.8427094,65.8981265 8.89306655,67.2575048 C8.19787345,68.2498509 6.89381843,68.7709459 4.93546402,69.1606343 C2.82716601,69.5820416 0.936967785,69.2829784 0.391718298,68.7392271 C0.0753222829,68.3381139 -0.0185093677,67.8055937 0.141812284,67.3209424 Z" id="Path" fill="#263238"></path>
                                        <path d="M0.532574416,66.8587538 C0.668886787,66.7001597 1.17324256,66.0748457 1.86389191,65.3860941 C2.46821009,64.7879676 3.16794694,64.0267158 3.93129622,63.4059331 C4.54898621,62.8189336 5.12586266,62.1906548 5.65791959,61.5254598 C6.38729411,60.5652657 7.00752742,59.5272918 7.5072241,58.4306087 C7.7162364,57.9004511 7.86618001,57.2751371 7.73895513,55.3221637 C7.56629279,52.6034072 7.4572429,51.9826245 7.33001802,49.907307 L14.9407921,49.404337 C14.7953922,50.5643398 14.4864175,52.1955937 14.3092114,53.7679412 C14.1047429,55.7571648 13.459531,55.9791965 14.3455614,57.9231074 C14.6700061,58.4607398 14.9062292,59.0466154 15.0452983,59.6585803 C15.1498044,60.6735828 14.4000864,61.59796 13.5413184,62.1417113 C12.8234066,62.5948374 11.9828136,62.8214004 11.2921643,63.3017141 C10.5918066,63.8433335 9.9933605,64.5045714 9.5246472,65.2546875 C9.07027263,65.9343766 8.68859799,66.7273473 8.00249238,67.225786 C7.27559979,67.7120775 6.4582548,68.0479785 5.5988509,68.2136008 C4.52200193,68.4714536 3.41639055,68.5902391 2.30917899,68.5670392 C0.75067421,68.5353203 -0.457962152,68.0278191 0.532574416,66.8587538 Z" id="Path" fill="#FFBDA7"></path>
                                        <path d="M6.24406279,63.5010895 C5.51003852,63.1350601 4.65271998,63.1052935 3.89494625,63.4195268 C2.83170975,64.3620291 1.95931057,65.2003124 1.34136115,65.784845 C0.59164311,66.4917217 -0.0672000196,67.1442233 0.00549991194,67.9009438 C0.119093555,69.0926654 4.76734543,69.1923532 7.27549307,67.9009438 C8.05451629,67.5801778 8.67726237,66.9688973 9.01120393,66.1971897 C9.01120393,66.1971897 8.54774187,64.5523421 6.24406279,63.5010895 Z M14.7953922,58.7115468 C14.3410177,57.9638888 14.1865303,57.5787316 14.1865303,57.5787316 C13.3141311,58.1224829 11.8783075,60.4606135 12.7234442,62.6854626 C13.6525082,62.455945 14.4431755,61.8497897 14.9044421,61.0134273 C15.3143757,60.2889174 15.2719933,59.3942883 14.7953922,58.7115468 L14.7953922,58.7115468 Z" id="Shape" fill="#37474F"></path>
                                        <path d="M27.1043994,59.409361 C26.7227248,60.0935814 27.4588116,63.4603082 27.4997053,65.2003124 C27.5360552,66.7862537 27.540599,69.622823 28.1858109,71.1272016 C28.9537039,72.9125183 30.3804401,74.9334607 32.579613,72.9850185 C33.9427367,71.7751719 34.6606485,70.3115746 34.6742798,68.0278191 C34.6742798,66.4373466 33.8336868,64.325779 33.0930563,62.4453058 C32.2342883,60.2521755 31.8798762,59.0695164 31.8798762,59.0695164 L27.1043994,59.409361 Z" id="Path" fill="#263238"></path>
                                        <path d="M31.1937706,48.3666783 C31.6481451,52.0234058 31.6481451,54.1168483 31.8253512,56.473104 C31.9440431,57.7024446 32.1367427,58.9235568 32.4024069,60.1298315 C32.7250129,61.6342101 33.365681,63.6460899 33.6837432,64.5976547 C34.1381178,65.9253141 34.4425487,66.7590661 34.0608741,68.3314136 C34.0267836,68.4553803 33.9795659,68.5753787 33.920018,68.6893832 C33.3156998,70.0170426 31.5936202,71.1362641 31.007477,71.0365763 C30.7814874,71.3474858 30.4034884,71.5107774 30.0214842,71.4625149 L29.8306468,71.430796 C29.7629198,71.4169031 29.6961442,71.3987416 29.630722,71.3764209 C29.1462885,71.1844243 28.7652982,70.7979017 28.5811168,70.3115746 C28.5402231,70.2118869 28.4993293,70.1031366 28.4629794,69.9853238 C28.0750445,68.7541461 27.8848855,67.4695112 27.8995549,66.1790647 C27.8722924,65.3181251 27.7405238,63.8228091 27.5496865,62.4543683 C27.3588492,61.0859275 26.3228751,57.3340435 25.7321882,55.2768511 C25.2778136,53.5776283 24.341802,50.0840262 24.341802,50.0840262 L31.1937706,48.3666783 Z" id="Path" fill="#FFBDA7"></path>
                                        <path d="M34.1790115,66.3331276 C32.7159254,65.8800015 28.4947856,66.2696899 27.9858861,68.1864133 C28.113111,69.9400112 28.2994045,71.0547014 29.612547,72.4593922 C31.3528017,74.330803 33.2475436,72.0062662 33.9291055,70.5562627 C34.4726666,69.2135481 34.5604398,67.7302785 34.1790115,66.3331276 L34.1790115,66.3331276 Z" id="Path" fill="#37474F"></path>
                                        <path d="M25.9775505,0.0317188259 C27.4542678,3.62953994 28.8537415,7.58986192 29.0809288,15.2114427 C29.3853598,25.257248 29.8579093,28.8867879 29.9578717,30.0966346 C30.1259903,32.1583582 31.0165645,34.029769 31.9752948,39.9521269 C32.9340252,45.8744848 32.4296694,56.7495109 32.4296694,56.7495109 C31.3952246,57.6632623 30.1163578,58.2568525 28.7492354,58.4577962 C26.6545686,58.765922 25.7321882,57.9457637 25.7321882,57.9457637 C25.7321882,57.9457637 21.7427794,41.9141629 20.7340679,38.3707169 C19.7253563,34.8272709 16.7310279,23.1592742 16.7310279,23.1592742 L15.5451103,32.9694539 C15.5451103,32.9694539 16.7310279,36.0597738 16.3857032,41.3205677 C16.0403786,46.5813615 14.1774428,56.4368539 14.1774428,56.4368539 C14.1774428,56.4368539 13.0596814,57.2887309 10.7923523,57.1754494 C8.52502314,57.0621679 7.61173025,56.2691972 7.61173025,56.2691972 C7.61173025,56.2691972 5.58067591,36.7349317 5.24443873,30.8125738 C4.90820155,24.8902158 4.07215233,9.29814726 6.23951904,0 L25.9775505,0.0317188259 Z" id="Path" fill="#1D88BC"></path>
                                        <path d="M7.8752675,9.64252309 C8.91124153,12.0350288 12.2690696,13.5620637 13.7185245,13.8248769 L15.9358724,23.0731802 L15.549654,32.9694539 L16.7355717,23.1592742 L14.2047053,11.8764347 C14.2047053,11.8764347 10.2152966,11.8175283 7.8752675,9.64252309 Z M21.392911,7.67595588 C21.6837108,8.6229894 21.9517918,9.57908544 22.233504,10.5306502 C22.5152162,11.482215 22.787841,12.4428423 23.0831844,13.4034696 C23.0359037,12.4002952 22.9128741,11.4021012 22.715141,10.4173687 C22.5288475,9.43408509 22.2834852,8.45986401 22.001773,7.49470544 C21.7130525,6.53221942 21.3702143,5.5867101 20.9748864,4.66266741 C20.5910062,3.7308886 20.1065129,2.8435722 19.5299753,2.01641108 C19.8843874,2.95891333 20.2069934,3.89235307 20.5159681,4.83485533 C20.8249428,5.77735758 21.1157425,6.7243911 21.392911,7.67595588 Z M22.9741345,5.72751371 C23.3330905,6.28939006 23.6738714,6.86032893 24.0146523,7.43126779 L25.0324514,9.17127196 C24.9266225,8.49551599 24.7342115,7.83611087 24.4599394,7.20923601 C24.1922995,6.58164212 23.8763217,5.97566203 23.5148403,5.39673167 C23.1517625,4.82013131 22.7494541,4.26904504 22.3107477,3.74735272 C21.876806,3.22171993 21.3929176,2.73916105 20.8658365,2.30641177 C21.19753,2.9045382 21.5564859,3.47094581 21.910898,4.03735342 C22.2653102,4.60376102 22.6288099,5.16110611 22.9741345,5.72751371 Z M23.0286595,32.8607037 C22.2834852,29.8247589 21.697342,26.7480328 21.1157425,23.6667754 C20.5341431,20.585518 19.9798061,17.5087919 19.3800317,14.4139408 C19.7526188,17.5314482 20.1570122,20.6444244 20.643193,23.7483381 C21.1293738,26.8522518 21.6837108,29.947103 22.4288851,33.0102353 C23.1740594,36.0733676 23.9919336,39.0911873 24.8143516,42.1226009 C25.6367695,45.1540144 26.4819062,48.1763654 27.3724804,51.1851226 C26.718181,48.1129277 26.0260171,45.0497954 25.2959886,41.9957256 C24.5553581,38.9507183 23.7920088,35.8921172 23.0150283,32.8607037 L23.0286595,32.8607037 Z M7.42543668,23.399431 L7.57083654,15.2023801 C7.26640558,17.9211367 7.06193702,20.6398932 6.93016839,23.3858372 C6.79839977,26.1317813 6.69843736,28.8460066 6.812031,31.6100757 C7.0301308,34.3560198 7.36182424,37.0475887 7.72078015,39.7663452 C8.07973606,42.4851017 8.4614107,45.2038582 8.90669778,47.8863647 C8.70677297,45.1676081 8.47504194,42.4488516 8.21150469,39.7300951 L7.82074256,35.6519604 C7.69351767,34.2925821 7.54811781,32.9332039 7.4572429,31.5738256 C7.36636798,30.2144473 7.39363046,28.8550691 7.3981742,27.4956908 C7.40271795,26.1363126 7.41180544,24.7588093 7.42543668,23.399431 Z" id="Shape" fill="#37474F"></path>
                                    </g>
                                    <g id="freepik--Top--inject-289">
                                        <path d="M45.6237508,17.6268182 C45.2329887,17.450099 45.0694138,17.8216624 45.2557074,18.1705695 C45.710082,18.9907277 46.8323872,19.1991657 47.2958492,19.6069792 C47.4003554,19.7202607 48.5817293,21.4194835 48.5317481,21.8182345 C48.1546172,21.5418275 47.0368557,20.5721377 46.6415498,20.3138558 C46.1588719,20.0675591 45.6628385,19.8482097 45.155745,19.656823 C44.9828335,19.5620332 44.7929543,19.501993 44.5968643,19.4801039 C44.4605519,19.4801039 44.2651708,19.7338545 44.4423769,20.0601052 C44.7604391,20.6401066 45.5419634,20.7941695 46.0872129,21.1657329 C46.3598376,21.3379208 47.1822556,21.9405785 47.3231117,22.5840175 C46.4870625,22.1308915 45.905463,22.035735 44.5105331,21.8590158 C44.3469583,21.8590158 44.3015208,21.9133909 44.2833458,22.0176099 C44.2704604,22.2030892 44.3504144,22.3829155 44.4969019,22.4979236 C44.833139,22.783393 45.405651,22.8241744 45.9827067,23.0371436 C46.5770195,23.2885181 47.1010133,23.6804336 47.5094053,24.1790214 C47.667149,24.3566369 47.7862761,24.5649222 47.8592737,24.7907416 C47.9314564,25.0804623 47.987581,25.3739284 48.0273923,25.6698062 C48.3009357,26.8490742 49.2641873,27.7451608 50.46284,27.9354366 C50.5368564,27.958151 50.6160108,27.958151 50.6900273,27.9354366 C50.8077941,27.8616263 50.8810331,27.7342349 50.8854083,27.595592 C51.1307706,26.2724639 50.7581835,24.9312107 50.5628024,23.6035512 C50.49919,23.1504251 49.9493967,19.8924486 49.908503,19.7746358 C49.8676093,19.656823 46.9323496,18.1932258 46.8369309,18.1615069 C46.5415874,18.0572879 45.996338,17.7990061 45.6237508,17.6268182 Z" id="Path" fill="#F0997A"></path>
                                        <path d="M70.119084,29.6346594 C69.0422163,29.9201289 60.6135679,32.2129468 60.6135679,32.2129468 C60.6135679,32.2129468 55.1610731,27.785905 54.0796616,26.7754338 C52.5802255,25.3616804 52.321232,23.9932397 52.0849572,22.7969868 C51.7396325,21.0796389 51.5124453,20.9437011 50.8763209,20.2911995 C50.481015,19.8879173 49.6313345,18.804946 49.5995283,18.7641646 C49.4560028,18.6281975 49.2879515,18.5205711 49.10426,18.4469764 L48.5408356,18.1479132 C47.9955861,17.8805688 47.6320864,17.7491622 47.0959244,17.4818178 C46.9294243,17.3945481 46.7543146,17.3246967 46.5733937,17.2733798 C46.5348339,17.2620506 46.4938161,17.2620506 46.4552563,17.2733798 C46.3825563,17.3005674 46.3598376,17.3911926 46.3598376,17.468224 C46.3731782,17.8382262 46.537276,18.1867942 46.8142122,18.4333826 C47.0924594,18.6677414 47.3974885,18.8685075 47.7229613,19.031509 C47.9228861,19.1402593 48.0410235,19.1855719 48.4408732,19.4121349 C48.5993485,19.5085097 48.728233,19.6464447 48.8134603,19.8108859 C49.306653,20.5465352 49.7180167,21.3335756 50.0402716,22.158079 C49.3332366,21.8075512 48.7337332,21.2738629 48.3045608,20.6129191 C47.9137986,19.9921363 47.2913055,20.5449502 47.5821052,21.4647961 C47.9183424,22.5296424 48.7134979,22.8241744 49.1269788,24.260584 C49.5404596,25.6969937 48.2182296,26.6757461 49.6358783,28.0623119 C50.4824701,28.7305014 51.2520489,29.4903669 51.9304699,30.3279423 C53.0754938,31.8640398 56.6423342,36.6309262 57.4692959,37.4737407 C59.2867942,39.286245 59.5457877,39.2046823 64.5711705,38.0582733 C71.6639575,36.4451445 72.9316626,36.0010809 72.9316626,36.0010809 L76.3303844,28.5879382 C74.4765361,28.5562193 73.7495368,28.6695009 70.119084,29.6346594 Z" id="Path" fill="#FFBDA7"></path>
                                        <path d="M76.3803656,28.2163748 C75.4716165,28.2571561 75.2262542,28.2888749 71.65487,29.1860646 C68.0834859,30.0832542 60.6726366,32.0679465 60.6726366,32.0679465 L58.8187884,30.5545054 C58.6254207,31.4367463 58.1748939,32.2423133 57.5238209,32.8699797 C56.8149748,33.5896616 55.9784035,34.1719624 55.0565669,34.5873275 L56.6196155,36.576551 C58.0736141,38.4207742 58.8369634,38.76515 59.4003878,38.9871818 C59.9638123,39.2092136 60.7635116,38.9645255 62.3265601,38.6654623 C63.8896086,38.3663991 73.1815686,36.1823313 73.1815686,36.1823313 L76.3803656,28.2163748 Z" id="Path" fill="#00A5F5"></path>
                                        <path d="M50.0493591,22.158079 C50.4332432,22.4221997 50.7787904,22.7378268 51.0762457,23.09605 C51.1852956,23.2410504 51.2352768,22.8196431 50.7581835,22.2577668 C50.2810902,21.6958904 49.7903656,21.6279215 49.7040345,21.4013585 L50.0493591,22.158079 Z" id="Path" fill="#F0997A"></path>
                                        <path d="M94.1918488,12.1938364 C94.7391308,11.6561112 94.9344335,10.8559912 94.6962046,10.1275815 C94.1963926,8.57789025 92.5061192,8.05226399 91.061208,8.40117108 C90.719524,7.84691867 90.2345578,7.39458812 89.6571906,7.09163669 C89.072572,6.79200818 88.3890834,6.74930486 87.7715361,6.97382391 C87.1496409,7.2093086 86.716126,7.77695326 86.6537747,8.43742116 C86.3612934,8.22590543 86.1834587,7.89129018 86.1721376,7.53116899 C85.8147534,7.85072593 85.5855433,8.28856981 85.5269257,8.76367194 C83.1487062,7.77390564 80.4462558,7.92929145 78.1978639,9.1850792 C76.5666592,10.0369562 74.8945607,11.2558654 74.2538926,13.0593072 C73.5814182,14.9397805 74.2538926,17.2824423 75.5897538,18.700727 C76.1895895,19.3011861 76.8419292,19.8470999 77.5390208,20.3319809 L80.3834056,22.4435484 C80.9594804,22.8507127 81.5088783,23.2941693 82.0282415,23.7712079 C82.6408402,24.3596238 83.1615783,25.0362507 83.5731151,25.7785564 C83.6594462,25.9326193 83.7684961,26.1138697 83.9457022,26.1321568 C84.0500777,26.1345791 84.1528714,26.1061913 84.2410457,26.0504321 C85.8689405,25.2738817 87.3446114,24.2135201 88.5984978,22.9193308 C89.7453527,21.7231113 90.5583502,20.2484276 90.9567019,18.6418206 C91.0578652,18.2154808 91.1277212,17.7823522 91.1657142,17.34588 L91.6200888,17.34588 C91.9056433,17.3682916 92.1879778,17.2733474 92.401613,17.0830669 C92.4788567,17.015098 92.9423188,16.3943152 92.7696564,16.2991587 C93.510287,16.7250973 94.4326674,16.7522848 94.8734107,16.3671276 C94.6553109,16.3082213 93.6784056,16.1315021 93.5648119,15.4608755 C94.4329515,15.5458851 95.2227256,14.9563658 95.3856208,14.1017503 C95.5485159,13.2471348 95.0307185,12.4097518 94.1918488,12.1711801 L94.1918488,12.1938364 Z" id="Path" fill="#263238"></path>
                                        <path d="M92.1835132,54.1940932 C91.365639,50.7458037 90.31149,48.5662672 90.3660149,47.8140779 C90.6250084,44.5470389 91.7882073,40.31031 92.206232,38.4298367 C93.1149811,34.351702 91.2247829,30.5091928 90.3160337,29.6301282 L88.148667,28.9549703 C87.4398427,28.7329385 86.2857313,28.5018442 85.199776,28.2707499 C82.7825033,27.7587174 81.769248,27.7134048 80.8514114,27.7451236 C80.3970368,27.7451236 78.2433013,27.9762179 78.2433013,27.9762179 C77.5844582,28.0804369 76.3939968,28.2118435 76.3894531,28.2163748 C75.1651436,29.1824321 74.11555,30.3502106 73.2860748,31.6691955 C72.1047009,33.4816999 71.3958765,34.9996723 70.9278707,38.9962443 C70.3371838,44.0893815 69.6147282,49.7851764 69.3648222,53.3512787 C73.4360184,56.2467544 86.4856561,56.9989437 92.1835132,54.1940932 Z" id="Path" fill="#F5F5F5"></path>
                                        <g id="freepik--head--inject-289" transform="translate(75.176696, 11.907229)">
                                            <path d="M11.1590164,15.1174247 C11.1862789,14.2882039 11.290785,11.2114778 11.290785,11.2114778 C11.290785,11.4652284 12.6175588,12.4938246 13.8761763,11.3247593 C15.1347939,10.155694 15.3756124,8.77819073 14.8212754,7.81756343 C14.2078698,6.75271713 12.5812088,6.61224804 11.7406158,8.13022042 C11.2180851,8.65131542 10.450192,7.88100108 11.0136165,6.37209121 C11.0499665,5.27099483 9.61868658,3.90255405 10.6819231,2.15801862 C7.81936327,-0.270737191 4.25252288,-0.560737885 2.16239985,0.843952978 C1.34750326,2.71275592 0.848515852,4.70322125 0.685682486,6.73459208 C0.381251522,10.3596008 1.14005706,12.1721051 2.21692479,12.9288257 C2.93938036,13.4272644 3.63002971,13.6085148 4.98860969,13.6583587 C4.98860969,13.6583587 4.95680347,14.5646108 4.94771597,15.1038309 C4.93862848,15.6430509 4.69780996,15.7608637 4.125298,15.8786765 C3.73907961,15.9602392 2.76217428,16.1278958 2.76217428,16.1278958 C2.76217428,16.1278958 1.28545692,18.0718067 4.78868487,18.6971207 C10.3774921,19.6985294 12.9674272,17.0613356 12.9674272,17.0613356 C12.9674272,17.0613356 12.7356961,16.9661791 11.8678407,16.6852409 C11.077229,16.4133653 11.1317539,15.9421141 11.1590164,15.1174247 Z" id="Path" fill="#FFBDA7"></path>
                                            <path d="M4.98860969,13.6447649 C7.43768863,13.6900775 9.84587386,13.1916388 10.522892,12.1403863 C10.4246051,12.8538459 9.98134623,13.4737194 9.33697434,13.7988277 C7.86480073,14.4422668 4.96134721,14.4966419 4.96134721,14.4966419 L4.98860969,13.6447649 Z" id="Path" fill="#F0997A"></path>
                                            <path d="M6.6198144,9.53038003 L4.41155398,9.95178729 C4.45798502,10.2447052 4.62140279,10.5063798 4.86453595,10.6771298 C5.1076691,10.8478799 5.40978461,10.9131449 5.70197776,10.8580395 C6.31264227,10.7283609 6.71546772,10.1456701 6.6198144,9.53038003 Z" id="Path" fill="#B16668"></path>
                                            <path d="M6.42443333,10.0016312 C5.83336407,9.90874096 5.2600452,10.2498813 5.06130962,10.8127268 C5.25779928,10.89539 5.47460837,10.9174848 5.68380278,10.8761645 C6.11415199,10.7889842 6.4576002,10.4658005 6.5698332,10.0424125 C6.53348323,10.0288187 6.48350203,10.0106937 6.42443333,10.0016312 Z" id="Path" fill="#F0997A"></path>
                                            <path d="M2.48954954,3.37239653 L4.01170435,3.18208358 C3.99709692,2.98103759 3.9002311,2.794828 3.74383061,2.66713766 C3.58743012,2.53944733 3.38525832,2.48151308 3.18474263,2.50692571 C2.75936115,2.56561485 2.45413478,2.94560211 2.48954954,3.37239653 L2.48954954,3.37239653 Z" id="Path" fill="#263238"></path>
                                            <path d="M8.6872187,3.84364766 L7.20141385,3.39052158 C7.25193957,3.19272766 7.38182074,3.02436596 7.56057502,2.92494999 C7.7393293,2.82553403 7.95121832,2.80381683 8.14651296,2.86489532 C8.55930463,2.9955499 8.79703123,3.42586799 8.6872187,3.84364766 Z" id="Path" fill="#263238"></path>
                                            <path d="M6.64707687,6.08209052 C6.64155242,6.32109025 6.78141978,6.5397184 7.00108467,6.63544386 C7.22074957,6.73116931 7.47664429,6.68500615 7.64876064,6.51860375 C7.82087698,6.35220135 7.8750779,6.09856347 7.78594451,5.87663993 C7.69681112,5.65471638 7.48202188,5.50852283 7.24230756,5.50662039 C7.08684728,5.50419814 6.93679128,5.56347141 6.82515976,5.67139697 C6.71352823,5.77932254 6.64946843,5.92705682 6.64707687,6.08209052 L6.64707687,6.08209052 Z" id="Path" fill="#263238"></path>
                                            <path d="M1.86251263,5.62443317 C1.85883814,5.86306364 1.99990862,6.08032436 2.21975442,6.17461639 C2.43960023,6.26890842 2.69477231,6.22159644 2.86594301,6.05480524 C3.03711372,5.88801403 3.09045386,5.63470724 3.00101966,5.41334025 C2.91158546,5.19197326 2.69705218,5.04629575 2.45774332,5.04443179 C2.30150465,5.04201131 2.15076424,5.10190384 2.03900117,5.21080739 C1.9272381,5.31971094 1.86370507,5.46860954 1.86251263,5.62443317 L1.86251263,5.62443317 Z" id="Path" fill="#263238"></path>
                                            <path d="M10.3093359,4.53239931 L13.8898076,7.07443665 C13.4832723,6.94631438 13.0419443,6.98885341 12.66754,7.19224943 L10.0866924,5.37974509 L10.3093359,4.53239931 Z" id="Path" fill="#455A64"></path>
                                            <path d="M0.172239219,4.23333609 C0.390339014,4.718181 0.254026642,5.55646426 0.453951454,6.10927809 C0.626613791,7.20131195 2.4759183,8.0169389 3.60276724,7.06990539 C3.78295786,6.90592576 3.93627494,6.714806 4.05714181,6.50349778 C4.37066027,5.968809 4.39792274,5.17130709 4.81594735,5.14411952 C5.97005876,5.14411952 4.64782876,8.0169389 7.76029458,8.19365808 C9.26881816,8.30240834 9.72319273,6.91131126 10.0003612,5.7830273 C10.1048674,5.45677652 10.3774921,5.4250577 10.4547358,5.01724422 C10.5319795,4.60943074 10.2048298,4.44630535 9.87768008,4.40099274 C8.88739219,4.127486 7.8597893,4.01277189 6.83337045,4.06114818 C5.86555261,4.21067979 5.5065967,4.47349292 4.98406594,4.40552401 C4.46153518,4.33755509 4.21162917,3.99317927 3.35740497,3.6080221 C2.3816798,3.27430615 1.35312822,3.12075444 0.322182828,3.15489601 C-0.141279236,3.19567736 -0.0231418471,3.99317927 0.172239219,4.23333609 Z M6.07910866,4.88130639 C6.81519547,4.21067979 9.03708712,4.42818031 9.45056798,4.97646287 C9.67321153,5.29818239 9.3824118,6.29959104 9.19611822,6.76177965 C9.19611822,6.81615478 9.14613702,6.87052991 9.1143308,6.9294363 C8.81790784,7.52874573 8.15304332,7.8528147 7.49675732,7.71787569 C7.01654697,7.681333 6.57346399,7.44643794 6.27448972,7.06990539 C5.86750235,6.41172596 5.79511214,5.60083295 6.07910866,4.88130639 L6.07910866,4.88130639 Z M2.07606868,3.69411605 C3.77088583,4.06114818 4.39792274,4.53693057 3.6981859,6.19537204 C3.4301049,6.99287395 2.20329356,7.29193717 1.42631304,6.77084217 C0.975991121,6.41302716 0.71074338,5.87234384 0.703857469,5.29818239 C0.567545097,3.88442901 0.685682486,3.53099066 2.09424366,3.69411605 L2.07606868,3.69411605 Z" id="Shape" fill="#455A64"></path>
                                            <path d="M2.78034926,7.54568777 L4.67963498,8.74194064 L5.37937182,5.68787083 C5.35111928,5.5353712 5.28556933,5.39218012 5.1885345,5.27099483 L2.78034926,7.54568777 Z" id="Path" fill="#F0997A"></path>
                                        </g>
                                        <g id="freepik--Glass--inject-289">
                                            <path d="M67.3746616,60.7191088 C67.3573584,60.7095787 67.3406658,60.6989853 67.3246804,60.68739 L43.6426777,45.244853 L43.6426777,45.244853 C43.1284121,44.878909 42.8563631,44.2615242 42.9338533,43.6362554 C43.0636306,41.8884163 44.0248224,40.3082395 45.5192447,39.3859328 C46.0423433,39.0237338 46.7192768,38.9667583 47.2958492,39.2364012 L47.2958492,39.2364012 L72.4227631,52.3272138 L72.4682005,52.3544013 L72.5590754,52.3997139 C73.6829254,53.0535692 74.4960675,54.1304742 74.8156561,55.388273 C75.1352448,56.6460717 74.9344548,57.9791886 74.2584363,59.0878549 C72.8377039,61.4211853 69.799218,62.1807397 67.4428178,60.791609 L67.3746616,60.7191088 Z" id="Path" fill="#9E9E9E"></path>
                                            <path d="M45.5192447,39.3542139 C46.9187183,38.5838996 48.031936,39.2364012 48.0046736,40.8132799 C47.8720031,42.5601949 46.9115458,44.139164 45.4192822,45.0636026 C44.0198086,45.833917 42.9065909,45.1814154 42.9338533,43.6045366 C43.0636306,41.8566974 44.0248224,40.2765207 45.5192447,39.3542139 L45.5192447,39.3542139 Z" id="Path" fill="#000000" opacity="0.25"></path>
                                            <path d="M69.7237781,54.3073747 L47.6820676,42.3267211 C47.8739519,41.847007 47.9830279,41.3383629 48.0046736,40.8223425 C48.0824297,40.2003754 47.8142313,39.5855612 47.3049367,39.2182761 L72.4227631,52.3045574 L72.4682005,52.331745 L72.5590754,52.3770576 C73.6829254,53.0309129 74.4960675,54.1078179 74.8156561,55.3656167 C75.1352448,56.6234154 74.9344548,57.9565322 74.2584363,59.0651986 C74.7128109,57.5653513 72.6226879,55.8978473 69.7237781,54.3073747 Z" id="Path" fill="#000000" opacity="0.1"></path>
                                            <path d="M35.5502665,38.1443673 C35.6278869,37.0875123 36.2092236,36.1319535 37.1133151,35.5751424 C37.429237,35.3571211 37.8374322,35.3226233 38.1856391,35.4845172 L38.1856391,35.4845172 L46.5733937,40.4009352 L46.5733937,40.4009352 C46.8844582,40.6227364 47.0484614,40.9968194 47.0005058,41.3751563 C46.9228854,42.4320113 46.3415487,43.38757 45.4374572,43.9443812 C45.1215352,44.1624025 44.7133401,44.1969003 44.3651332,44.0350064 L35.9773786,39.1185884 L35.9773786,39.1185884 C35.6655071,38.8974402 35.5012822,38.5228515 35.5502665,38.1443673 L35.5502665,38.1443673 Z" id="Path" fill="#E0E0E0"></path>
                                            <path d="M42.797541,38.1851486 L39.6805314,36.3726443 C39.229186,37.7682726 38.729374,39.1185884 38.1810953,40.4235915 L41.2481237,42.2360958 C41.8160919,40.8993739 42.3340789,39.5535894 42.797541,38.1851486 Z" id="Path" fill="#000000" opacity="0.25"></path>
                                            <path d="M43.3700529,4.51334927 L38.0447829,1.4774045 C34.0190242,-0.842601056 28.4438482,-0.507287753 22.2870728,3.03162697 C9.97806561,10.1230502 0,27.3554352 0,41.5473442 C0,48.6342362 2.49906015,53.6095606 6.53390635,55.9340974 L11.8410014,58.9609796 C13.6107989,59.9532307 15.6133323,60.4583529 17.6433646,60.4245769 C20.6376931,60.4245769 24.0046087,59.4503558 27.5941678,57.3886321 C39.9031749,50.3062714 49.8585218,33.0693551 49.8585218,18.8729149 C49.9039593,11.8132105 47.3958116,6.83335482 43.3700529,4.51334927 Z M14.9171172,24.4010531 C18.8247385,17.658537 23.9591712,12.2255552 29.3844036,9.10351651 C32.2242447,7.46320008 34.9913858,6.57960422 37.3904836,6.54335413 C37.8001943,6.5326581 38.2101511,6.55082834 38.6172949,6.59772926 C40.3121121,8.71835934 41.2390362,11.9446171 41.2390362,16.0499394 C41.2390362,22.2940168 39.0898445,29.4488777 35.1867669,36.1913939 C31.2836893,42.93391 26.1447129,48.3668918 20.7240242,51.4843992 C17.8069395,53.165497 14.9807296,54.049146 12.5452819,54.049146 C12.1945497,54.0503096 11.8440575,54.0306392 11.4956767,53.9901865 C11.180449,53.5962162 10.8992464,53.1763293 10.6550837,52.7350272 C9.49642856,50.6778348 8.86927731,47.9047032 8.86927731,44.5379764 C8.85121667,38.3120239 11.0004084,31.1616943 14.9171172,24.4010531 Z" id="Shape" fill="#0090D6"></path>
                                            <path d="M5.82962576,20.8757322 L14.2037491,25.6698062 C14.4309364,25.2529302 14.6581237,24.8360542 14.9080297,24.4191782 C16.1089639,22.3407316 17.4557561,20.3495643 18.9383322,18.4605702 L10.5414901,13.6574337 C8.77818353,15.932836 7.20241885,18.3468146 5.82962576,20.8757322 Z M15.9712662,7.73507573 C14.9352922,8.68664051 13.9341535,9.6986221 12.9678503,10.7710205 L21.4101298,15.6013446 C22.3856298,14.5513371 23.4186389,13.5559593 24.5044207,12.6197749 L15.9712662,7.73507573 Z" id="Shape" fill="#FFFFFF" opacity="0.1"></path>
                                            <path d="M11.8137389,58.9292608 L6.53390635,55.9205036 C2.49906015,53.5959668 0.00454374572,48.6206424 0.00454374572,41.5337504 C0.00454374572,41.2618748 0.00454374572,40.9899991 0.00454374572,40.7135922 L5.31163875,43.7404744 C5.31163875,44.0123501 5.31163875,44.2842257 5.31163875,44.5561014 C5.31163875,51.6248683 7.79706766,56.6001927 11.8137389,58.9292608 Z" id="Path" fill="#0184C4"></path>
                                            <path d="M43.9970898,9.80133068 C42.7496818,8.00967798 40.7795292,6.85102804 38.6036637,6.62944808 C40.2984808,8.75007816 41.2254049,11.9763359 41.2254049,16.0816582 C41.2254049,22.3257357 39.0762132,29.4805965 35.1731356,36.2231127 C31.2700581,42.9656288 26.1310817,48.3986106 20.710393,51.5161181 C17.7933083,53.1972158 14.9670984,54.0808117 12.5316507,54.0808117 C12.1809184,54.0820285 11.8304262,54.062358 11.4820454,54.0219053 C12.8597325,55.7783004 14.9535799,56.827335 17.1889901,56.8811309 C17.3389337,56.8811309 17.493421,56.8811309 17.6433646,56.8811309 C20.0833561,56.8811309 22.9141097,55.997535 25.8221069,54.3209685 C31.2427956,51.1989298 36.3772283,45.765948 40.2848496,39.0234319 C44.1924709,32.2809158 46.337193,25.1260549 46.337193,18.8819774 C46.3462064,15.0168119 45.5192447,11.9219608 43.9970898,9.80133068 Z" id="Path" fill="#04699A"></path>
                                            <path d="M27.5987115,6.06304048 C15.2897044,13.1499324 5.31163875,30.3868487 5.31163875,44.5787577 C5.31163875,58.7706667 15.3078793,64.4936491 27.5987115,57.4067572 C39.8895437,50.3198652 49.8630656,33.0874802 49.8630656,18.8910399 C49.8630656,4.6945997 39.9077187,-1.02385149 27.5987115,6.06304048 Z M25.8221069,54.3345623 C22.9095659,56.0111288 20.0788123,56.8947247 17.6433646,56.8947247 C14.7031517,56.9698943 11.9790761,55.3607149 10.632365,52.7531523 C9.46916609,50.6959598 8.84667292,47.9228282 8.84667292,44.5561014 C8.84667292,38.3120239 10.9958646,31.1616943 14.903486,24.4191782 C18.8111073,17.676662 23.9409962,12.2436803 29.3662286,9.12164155 C32.2060697,7.48132512 34.9732108,6.59772926 37.3723086,6.56147917 L37.5495147,6.56147917 C43.0565345,6.56147917 46.3416626,11.1743027 46.3416626,18.9001025 C46.3416626,25.1441799 44.1924709,32.2990408 40.2893933,39.0415569 C36.3863157,45.7840731 31.2746018,51.2125236 25.8221069,54.3345623 Z" id="Shape" fill="#00A5F5"></path>
                                            <path d="M10.7186962,24.6910538 C8.65759898,28.6846511 7.13001909,32.9303183 6.17495044,37.3196778 C5.71363767,39.5114365 5.45958877,41.7415308 5.4161449,43.9806313 C5.35864131,46.2161731 5.60472129,48.4491955 6.14768796,50.6189284 C6.66998455,52.7918962 7.67980558,54.8183832 9.10112268,56.5458176 C10.5588766,58.2506491 12.5171453,59.4553527 14.6990174,59.9895758 C16.8907312,60.4891442 19.1708572,60.4549508 21.3465174,59.8898881 C23.5322525,59.3530117 25.6309893,58.5109421 27.5805365,57.3886321 C25.6479449,58.551258 23.5597358,59.4345921 21.3783236,60.0122322 C19.1829513,60.6005774 16.8776252,60.6518734 14.6581237,60.1617638 C12.4312197,59.6313494 10.4282093,58.4154068 8.93300409,56.6862867 C7.47967079,54.9410876 6.44609156,52.887359 5.91141319,50.6823661 C5.37748053,48.4883821 5.14212167,46.2327067 5.21167634,43.9761 C5.2736719,41.725105 5.54442192,39.4846613 6.02046308,37.2834277 C6.49548258,35.084978 7.13025322,32.9239043 7.91974879,30.8173185 C8.72608965,28.7200136 9.66083165,26.6740741 10.7186962,24.6910538 L10.7186962,24.6910538 Z" id="Path" fill="#00A5F5"></path>
                                            <path d="M37.5540584,6.55694791 C38.6719258,6.53969039 39.7821887,6.74296163 40.8210116,7.15507434 C41.8615609,7.58982883 42.7926145,8.24906055 43.547259,9.08539146 C44.2869916,9.93308061 44.8797544,10.8978848 45.3011449,11.9400858 C45.7253136,12.9778127 46.0301756,14.0601395 46.209894,15.1663435 C46.5625742,17.3767109 46.6251983,19.6234613 46.3961876,21.8499533 C46.1843416,24.073535 45.767586,26.2729336 45.1512012,28.4202815 C44.5493646,30.5715073 43.7806683,32.6727963 42.8520659,34.7051403 C41.9320606,36.7348994 40.8802207,38.7026262 39.7032501,40.5957794 C37.3720349,44.422712 34.4927028,47.8894829 31.1564644,50.8862728 C29.4690172,52.3703226 27.6309755,53.6748293 25.6721633,54.7786259 C23.7075552,55.9178803 21.5524073,56.6931369 19.3109193,57.0669126 C18.1748655,57.2451325 17.0169412,57.2328806 15.884935,57.0306625 C14.7422375,56.8120971 13.6640966,56.338027 12.7315755,55.6440967 C12.2655569,55.3023342 11.8402291,54.9085808 11.4638705,54.4705001 C11.088747,54.0360374 10.7555764,53.5672391 10.4687901,53.0703405 C9.90300354,52.0837343 9.4764134,51.0240013 9.20108509,49.9211142 C8.67651122,47.7343051 8.48655555,45.4809604 8.63766062,43.2375045 C8.77714371,41.0077106 9.13322384,38.7966712 9.70089712,36.6354574 C10.2584626,34.4801497 10.9830986,32.3712991 11.8682638,30.3279423 C12.7484847,28.2855964 13.7671248,26.3053873 14.9171172,24.4010531 C12.7328837,28.2632722 11.0937785,32.4077189 10.0462218,36.7170201 C9.53096934,38.8634646 9.22661563,41.0548605 9.13747265,43.2601608 C9.01966061,45.4534477 9.23566673,47.6518784 9.7781408,49.7806452 C10.0559249,50.8296903 10.4763338,51.8358994 11.0276709,52.7712773 C11.566534,53.6989735 12.2865331,54.5094432 13.1450564,55.1547205 C14.0057842,55.7895728 15.0003144,56.2203848 16.0530536,56.414411 C17.1163362,56.5934711 18.2021993,56.5934711 19.2654819,56.414411 C21.4144189,56.0470147 23.4806886,55.301335 25.3677324,54.2122183 C27.2756977,53.1183234 29.0662031,51.8322766 30.7111773,50.3742403 C34.0102104,47.431896 36.8604645,44.0246527 39.1716319,40.2604661 C41.5217211,36.5188432 43.3629015,32.4824238 44.6468455,28.2571561 C45.2822778,26.1459756 45.7248259,23.9817799 45.9690755,21.7910469 C46.2244435,19.6018414 46.1954267,17.3889227 45.8827443,15.2071249 C45.7241553,14.1223976 45.4452781,13.0585853 45.0512388,12.0352423 C44.6617646,11.0070053 44.104452,10.0500816 43.4018591,9.20320425 C42.6822623,8.3670819 41.7872519,7.69882867 40.7801179,7.24569956 C39.7607964,6.8063137 38.6644215,6.57224175 37.5540584,6.55694791 L37.5540584,6.55694791 Z" id="Path" fill="#005A85"></path>
                                            <path d="M40.116731,6.93304256 C39.2869287,6.67724139 38.4225766,6.55039015 37.5540584,6.55670608 L37.3768523,6.55670608 C34.9777546,6.593198 32.2106134,7.46320008 29.3707724,9.11711029 C23.94554,12.2436803 18.8111073,17.676662 14.9171172,24.4010531 C11.0231271,31.1254442 8.86484791,38.2938989 8.86484791,44.5379764 C8.86484791,47.9047032 9.49188481,50.6778348 10.65054,52.7350272 C11.1441964,53.6421279 11.8020113,54.4502307 12.5907194,55.1184704 C13.4201181,55.3765156 14.2845865,55.5049124 15.153392,55.4992854 C17.5979272,55.4992854 20.424137,54.6155005 23.3321343,52.9344027 C28.7528229,49.8168952 33.8917993,44.3793822 37.7948769,37.6368661 C41.6979545,30.8943499 43.8471462,23.7394891 43.8471462,17.4954116 C43.8380587,12.6197749 42.5067412,8.94492238 40.116731,6.93304256 Z" id="Path" fill="#FFFFFF" opacity="0.3"></path>
                                        </g>
                                        <g id="freepik--arm--inject-289" transform="translate(58.352754, 29.625597)">
                                            <path d="M32.1541173,0.290000694 C35.0666583,1.46812852 35.7345889,4.30922907 34.1215592,7.49470544 C32.7039105,10.2859621 27.101472,17.1462911 26.2154416,18.2655125 C25.3294112,19.3847339 24.6069556,19.7608286 22.3759765,20.6262994 C20.1449973,21.4917702 14.2426716,23.1139616 12.520592,23.6259941 C10.7985124,24.1380265 9.6898384,25.1031851 8.0495462,25.8145931 C6.40925399,26.526001 4.17373109,26.4263133 3.0514259,26.213344 C2.47652558,26.0337065 1.97987058,25.6646353 1.64286473,25.1666228 C0.861340462,24.944591 0.761378056,24.6228715 0.82044675,24.3509958 C0.125253654,24.2377143 -0.170089818,24.0519326 0.0979911801,23.5761502 C0.66141565,22.5838041 2.53798263,22.774117 4.25551852,22.4342725 C5.90035447,22.1034904 7.19986574,21.4238013 6.79092863,21.2017695 C5.95942316,20.7486434 4.57358072,21.2561446 3.32405064,20.5130179 C2.58796384,20.0598918 2.72881995,19.4300465 3.08323212,19.4436403 C3.7375315,19.4753591 5.03249904,19.0766082 6.64098502,19.0403581 C8.10407114,19.0086393 9.92611318,19.6203595 10.9984372,19.2080147 C13.520216,18.2473874 21.0900964,14.5408161 21.0900964,14.5408161 L27.4467967,5.19735619 C27.4467967,5.19735619 29.2188575,1.31406565 32.1541173,0.290000694 Z" id="Path" fill="#FFBDA7"></path>
                                            <path d="M18.4501802,15.8186316 L20.9992215,14.418472 L27.0969283,5.12485602 C27.0969283,5.12485602 29.4233261,0.593595171 31.9723674,0 C34.2442403,0.951564778 34.7622273,1.93031712 35.0575708,3.03141351 C35.2438643,3.72016516 35.393808,5.94501423 33.3718411,9.26189718 C31.3498743,12.5787801 27.2105219,17.232385 26.3199477,18.3697315 C25.4293736,19.507078 25.3203237,19.611297 23.6936627,20.2139546 C22.0670017,20.8166123 20.8629091,21.1564569 20.8629091,21.1564569 C19.2680544,19.7245785 18.3593052,18.0026994 18.4501802,15.8186316 Z" id="Path" fill="#00A5F5"></path>
                                        </g>
                                    </g>
                                </g>
                            </g>
                        </g>
                    </g>
                </g>
            </g>
        </g>
    </g>
</svg>