<?xml version="1.0" encoding="UTF-8"?>
<svg width="488px" height="447px" viewBox="0 0 488 447" version="1.1" xmlns="http://www.w3.org/2000/svg" xmlns:xlink="http://www.w3.org/1999/xlink">
    <g id="Page-1" stroke="none" stroke-width="1" fill="none" fill-rule="evenodd">
        <g id="Artboard" transform="translate(-7.000000, -9.000000)" fill-rule="nonzero">
            <g id="Computer-troubleshooting-amico-(1)" transform="translate(7.000000, 9.497212)">
                <g id="freepik--Floor--inject-8" transform="translate(0.000000, 154.674032)" fill="#F5F5F5">
                    <ellipse id="freepik--floor--inject-8" cx="243.61" cy="145.8" rx="243.61" ry="145.8"></ellipse>
                </g>
                <g id="freepik--Barrier--inject-8" transform="translate(14.211050, 176.292029)">
                    <g id="freepik--barrier--inject-8" transform="translate(-0.000000, -0.000000)">
                        <path d="M76.6789497,76.9020038 L72.2989497,79.4220038 C71.7972434,79.6817558 71.200656,79.6817558 70.6989497,79.4220038 L69.3089497,78.6220038 C68.8531789,78.3303802 68.6136369,77.7963194 68.6989497,77.2620038 L83.2489497,8.38200385 C83.4057603,7.82212514 83.7612869,7.33860896 84.2489497,7.02200385 L88.6289497,4.49200385 C89.1295,4.24213728 89.7183993,4.24213728 90.2189497,4.49200385 L91.6189497,5.30200385 C92.0729941,5.59449919 92.3090077,6.12946328 92.2189497,6.66200385 L77.6589497,75.5420038 C77.5097153,76.0999873 77.1610356,76.5838694 76.6789497,76.9020038 Z" id="Path" fill="#455A64"></path>
                        <path d="M76.6789497,76.9020038 L72.2989497,79.4220038 C71.8589497,79.6820038 71.5789497,79.4820038 71.6889497,78.9820038 L86.2389497,10.1120038 C86.3914597,9.55003955 86.748014,9.06512571 87.2389497,8.75200385 L91.6289497,6.22200385 C92.0589497,5.96200385 92.3389497,6.16200385 92.2289497,6.66200385 L77.6589497,75.5420038 C77.5097153,76.0999873 77.1610356,76.5838694 76.6789497,76.9020038 Z" id="Path" fill="#263238"></path>
                        <polygon id="Path" fill="#37474F" points="74.3389497 72.4020038 75.6389497 66.2520038 78.6189497 64.5320038 106.26895 80.5020038 107.56895 88.1420038 104.58895 89.8620038"></polygon>
                        <polygon id="Path" fill="#455A64" points="104.58895 89.8620038 74.3389497 72.4020038 75.6389497 66.2520038 103.28895 82.2220038"></polygon>
                        <path d="M109.51895,95.8520038 L105.13895,98.3820038 C104.638399,98.6318704 104.0495,98.6318704 103.54895,98.3820038 L102.14895,97.5720038 C101.648791,97.2688506 101.289195,96.7797992 101.14895,96.2120038 L86.5289497,10.1020038 C86.4676222,9.56406768 86.7153595,9.03762586 87.1689497,8.74200385 L91.5589497,6.21200385 C92.0571433,5.95233169 92.6507561,5.95233169 93.1489497,6.21200385 L94.5389497,7.01200385 C95.0404736,7.31831306 95.4000846,7.81098012 95.5389497,8.38200385 L110.15895,94.4820038 C110.226717,95.0237305 109.977908,95.5563387 109.51895,95.8520038 Z" id="Path" fill="#37474F"></path>
                        <path d="M86.5789497,10.1120038 L87.1289497,13.3720038 L101.19895,96.2120038 C101.343696,96.7802783 101.701837,97.2709308 102.19895,97.5820038 L103.59895,98.3920038 C104.0995,98.6418704 104.688399,98.6418704 105.18895,98.3920038 L109.56895,95.8620038 C110.024178,95.563097 110.271838,95.0329508 110.20895,94.4920038 L95.6389497,8.68200385 L95.6389497,8.39200385 C95.4990781,7.82144784 95.1397214,7.3291291 94.6389497,7.02200385 L93.2489497,6.21200385 C92.7449284,5.96193925 92.152971,5.96193925 91.6489497,6.21200385 L87.2689497,8.74200385 C86.7946183,9.02797142 86.526339,9.56064209 86.5789497,10.1120038 L86.5789497,10.1120038 Z" id="Path" fill="#37474F"></path>
                        <path d="M95.5389497,8.39200385 L110.15895,94.4920038 C110.226717,95.0337305 109.977908,95.5663387 109.51895,95.8620038 L105.13895,98.3920038 C104.961595,98.5199933 104.728645,98.5413373 104.530984,98.4477085 C104.333324,98.3540797 104.202269,98.1603126 104.18895,97.9420038 L89.5689497,11.8520038 C89.4986719,11.3098845 89.7480798,10.7759958 90.2089497,10.4820038 L94.5889497,7.95200385 C94.7648644,7.82469186 94.9958398,7.80236559 95.192882,7.89362725 C95.3899242,7.98488891 95.5222786,8.17549425 95.5389497,8.39200385 L95.5389497,8.39200385 Z" id="Path" fill="#455A64"></path>
                        <path d="M82.5489497,11.7320038 L84.8389497,13.0620038 C85.5444443,13.423943 86.3526178,13.5333464 87.1289497,13.3720038 C87.4415989,13.3220539 87.7429237,13.2170981 88.0189497,13.0620038 L95.5889497,8.68200385 L95.5889497,8.39200385 C95.4490781,7.82144784 95.0897214,7.3291291 94.5889497,7.02200385 L93.1989497,6.21200385 C92.6949284,5.96193925 92.102971,5.96193925 91.5989497,6.21200385 C91.7089497,5.72200385 92.0389497,5.55200385 91.5989497,5.30200385 L90.2089497,4.49200385 C89.7083993,4.24213728 89.1195,4.24213728 88.6189497,4.49200385 L84.2389497,7.02200385 C83.7493402,7.33654055 83.3932056,7.82088363 83.2389497,8.38200385 L82.5489497,11.7320038 Z" id="Path" fill="#000000" opacity="0.15"></path>
                        <path d="M79.8889497,6.37200385 C79.9140098,5.96165285 80.1698735,5.6011176 80.5489497,5.44200385 L89.3089497,0.382003849 C90.3077644,-0.127334616 91.490135,-0.127334616 92.4889497,0.382003849 L96.7789497,2.85200385 C97.144927,3.01662531 97.3961411,3.36299629 97.4389497,3.76200385 C97.4389497,4.10200385 97.4389497,5.43200385 97.4389497,5.76200385 C97.3995388,6.1647206 97.1478024,6.51562584 96.7789497,6.68200385 L88.0189497,11.6820038 C87.018975,12.1864912 85.8389243,12.1864912 84.8389497,11.6820038 L80.5489497,9.20200385 C80.1802595,9.0407343 79.9277295,8.69254899 79.8889497,8.29200385 C79.8789497,8.01200385 79.8889497,6.70200385 79.8889497,6.37200385 Z" id="Path" fill="#37474F"></path>
                        <path d="M79.8889497,6.37200385 C79.9140098,5.96165285 80.1698735,5.6011176 80.5489497,5.44200385 L86.4289497,2.04200385 L86.4289497,12.1220038 C85.8753724,12.1315623 85.3283834,12.0008354 84.8389497,11.7420038 L80.5489497,9.26200385 C80.1802595,9.1007343 79.9277295,8.75254899 79.8889497,8.35200385 C79.8789497,8.01200385 79.8889497,6.70200385 79.8889497,6.37200385 Z" id="Path" fill="#263238"></path>
                        <path d="M88.0189497,9.75200385 L96.7789497,4.69200385 C97.147703,4.53491559 97.3870313,4.17282269 97.3870313,3.77200385 C97.3870313,3.37118501 97.147703,3.00909211 96.7789497,2.85200385 L92.4889497,0.382003849 C91.490135,-0.127334616 90.3077644,-0.127334616 89.3089497,0.382003849 L80.5489497,5.44200385 C80.1863777,5.60187387 79.9524035,5.96075029 79.9524035,6.35700385 C79.9524035,6.75325741 80.1863777,7.11213383 80.5489497,7.27200385 L84.8389497,9.75200385 C85.8377644,10.2613423 87.020135,10.2613423 88.0189497,9.75200385 Z" id="Path" fill="#455A64"></path>
                        <path d="M7.98894968,116.552004 L3.60894968,119.082004 C3.10839935,119.33187 2.51950001,119.33187 2.01894968,119.082004 L0.618949679,118.282004 C0.164905209,117.989509 -0.0711083602,117.454544 0.0189496791,116.922004 L14.5689497,48.0420038 C14.7178604,47.4783105 15.0752905,46.9922056 15.5689497,46.6820038 L19.9489497,44.1520038 C20.4495,43.9021373 21.0383993,43.9021373 21.5389497,44.1520038 L22.9389497,44.9520038 C23.3929941,45.2444992 23.6290077,45.7794633 23.5389497,46.3120038 L8.96894968,115.192004 C8.82499743,115.752476 8.47506837,116.238092 7.98894968,116.552004 L7.98894968,116.552004 Z" id="Path" fill="#455A64"></path>
                        <path d="M7.98894968,116.552004 L3.60894968,119.082004 C3.16894968,119.332004 2.89894968,119.142004 2.99894968,118.642004 L17.5489497,49.7620038 C17.7057603,49.2021251 18.0612869,48.718609 18.5489497,48.4020038 L22.9189497,45.8520038 C23.3589497,45.6020038 23.6289497,45.8520038 23.5189497,46.2920038 L8.96894968,115.192004 C8.82499743,115.752476 8.47506837,116.238092 7.98894968,116.552004 L7.98894968,116.552004 Z" id="Path" fill="#263238"></path>
                        <polygon id="Path" fill="#37474F" points="5.56894968 112.162004 6.86894968 106.012004 9.85894968 104.292004 37.5089497 120.262004 38.8089497 127.902004 35.8189497 129.622004"></polygon>
                        <polygon id="Path" fill="#455A64" points="35.8189497 129.622004 5.56894968 112.162004 6.86894968 106.012004 34.5189497 121.982004"></polygon>
                        <path d="M40.8289497,135.512004 L36.4489497,138.042004 C35.9507561,138.301676 35.3571433,138.301676 34.8589497,138.042004 L33.4689497,137.242004 C32.9674257,136.935695 32.6078147,136.443028 32.4689497,135.872004 L17.8989497,49.7720038 C17.8311822,49.2302772 18.0799918,48.697669 18.5389497,48.4020038 L22.9189497,45.8520038 C23.4195,45.6021373 24.0083993,45.6021373 24.5089497,45.8520038 L25.8989497,46.6620038 C26.4013976,46.9626466 26.7617836,47.4527715 26.8989497,48.0220038 L41.4689497,134.152004 C41.5402502,134.691536 41.2901264,135.223049 40.8289497,135.512004 Z" id="Path" fill="#37474F"></path>
                        <path d="M17.8989497,49.7720038 L18.4489497,53.0220038 L32.5189497,135.852004 C32.643142,136.413127 32.9800986,136.904223 33.4589497,137.222004 L34.8589497,138.022004 C35.362971,138.272068 35.9549284,138.272068 36.4589497,138.022004 L40.8289497,135.502004 C41.2861646,135.204044 41.5373592,134.674603 41.4789497,134.132004 L26.9089497,48.3420038 L26.9089497,48.0520038 C26.7642029,47.4837294 26.4060624,46.9930769 25.9089497,46.6820038 L24.5089497,45.8720038 C24.0083993,45.6221373 23.4195,45.6221373 22.9189497,45.8720038 L18.5289497,48.4020038 C18.0756755,48.7018508 17.8315515,49.2327236 17.8989497,49.7720038 L17.8989497,49.7720038 Z" id="Path" fill="#37474F"></path>
                        <path d="M26.8489497,48.0420038 L41.4689497,134.152004 C41.5402502,134.691536 41.2901264,135.223049 40.8289497,135.512004 L36.4489497,138.042004 C36.2747336,138.176543 36.0401097,138.202914 35.8403743,138.110405 C35.640639,138.017896 35.5090096,137.821892 35.4989497,137.602004 L20.8789497,51.4920038 C20.8127319,50.9532736 21.0616306,50.4243638 21.5189497,50.1320038 L25.8989497,47.6020038 C26.0731658,47.4674643 26.3077896,47.4410935 26.507525,47.5336026 C26.7072604,47.6261116 26.8388897,47.8221154 26.8489497,48.0420038 Z" id="Path" fill="#455A64"></path>
                        <path d="M13.8589497,51.3920038 L16.1489497,52.7120038 C16.8565609,53.0786412 17.6695199,53.188214 18.4489497,53.0220038 C18.7607642,52.9687776 19.0615424,52.8640122 19.3389497,52.7120038 L26.9089497,48.3420038 L26.9089497,48.0520038 C26.7642029,47.4837294 26.4060624,46.9930769 25.9089497,46.6820038 L24.5089497,45.8720038 C24.0083993,45.6221373 23.4195,45.6221373 22.9189497,45.8720038 C23.0289497,45.3820038 23.3589497,45.2120038 22.9189497,44.9520038 L21.5289497,44.1520038 C21.0272434,43.8922519 20.430656,43.8922519 19.9289497,44.1520038 L15.5489497,46.6820038 C15.0552905,46.9922056 14.6978604,47.4783105 14.5489497,48.0420038 L13.8589497,51.3920038 Z" id="Path" fill="#000000" opacity="0.15"></path>
                        <path d="M11.1989497,46.0220038 C11.2369468,45.6163339 11.4885627,45.2617843 11.8589497,45.0920038 L20.6189497,40.0320038 C21.6200503,39.5322707 22.797849,39.5322707 23.7989497,40.0320038 L28.0889497,42.5120038 C28.4576398,42.6732734 28.7101698,43.0214587 28.7489497,43.4220038 C28.7489497,43.7520038 28.7489497,45.0820038 28.7489497,45.4220038 C28.7136542,45.826257 28.4605765,46.1790319 28.0889497,46.3420038 L19.3289497,51.4020038 C18.330135,51.9113423 17.1477644,51.9113423 16.1489497,51.4020038 L11.8589497,48.9220038 C11.4958127,48.7591594 11.2451127,48.4172959 11.1989497,48.0220038 C11.1989497,47.6720038 11.2089497,46.3520038 11.1989497,46.0220038 Z" id="Path" fill="#37474F"></path>
                        <path d="M11.1989497,46.0220038 C11.2369468,45.6163339 11.4885627,45.2617843 11.8589497,45.0920038 L17.7389497,41.7020038 L17.7389497,51.7720038 C17.1855142,51.7802692 16.6388416,51.6496178 16.1489497,51.3920038 L11.8589497,48.9120038 C11.4958127,48.7491594 11.2451127,48.4072959 11.1989497,48.0120038 C11.1989497,47.6720038 11.2089497,46.3520038 11.1989497,46.0220038 Z" id="Path" fill="#263238"></path>
                        <path d="M19.3289497,49.4120038 L28.0889497,44.3520038 C28.457703,44.1949156 28.6970313,43.8328227 28.6970313,43.4320038 C28.6970313,43.031185 28.457703,42.6690921 28.0889497,42.5120038 L23.7989497,40.0320038 C22.797849,39.5322707 21.6200503,39.5322707 20.6189497,40.0320038 L11.8589497,45.0920038 C11.4901963,45.2490921 11.250868,45.611185 11.250868,46.0120038 C11.250868,46.4128227 11.4901963,46.7749156 11.8589497,46.9320038 L16.1489497,49.4120038 C17.1500503,49.911737 18.327849,49.911737 19.3289497,49.4120038 L19.3289497,49.4120038 Z" id="Path" fill="#455A64"></path>
                        <polygon id="Path" fill="#FFC100" points="14.7589497 60.9320038 107.31895 7.49200385 105.80895 6.62200385 13.2489497 60.0620038"></polygon>
                        <polygon id="Path" fill="#FFFFFF" opacity="0.4" points="14.7589497 60.9320038 107.31895 7.49200385 105.80895 6.62200385 13.2489497 60.0620038"></polygon>
                        <polygon id="Path" fill="#FFC100" points="14.7589497 60.9320038 19.2489497 87.6620038 111.80895 34.2220038 107.31895 7.49200385"></polygon>
                        <polygon id="Path" fill="#E0E0E0" points="13.2489497 60.0620038 17.7389497 86.7920038 19.2489497 87.6620038 14.7589497 60.9320038"></polygon>
                        <polygon id="Path" fill="#EBEBEB" points="23.2489497 56.0320038 19.2489497 87.6620038 14.7589497 60.9320038"></polygon>
                        <polygon id="Path" fill="#EBEBEB" points="103.31895 39.1220038 107.31895 7.49200385 111.80895 34.2220038"></polygon>
                        <polygon id="Path" fill="#EBEBEB" points="34.7889497 78.6820038 38.7889497 47.0520038 29.5989497 52.3520038 25.5989497 83.9820038"></polygon>
                        <polygon id="Path" fill="#EBEBEB" points="50.3289497 69.7120038 54.3289497 38.0820038 45.1389497 43.3820038 41.1389497 75.0120038"></polygon>
                        <polygon id="Path" fill="#EBEBEB" points="65.8789497 60.7420038 69.8789497 29.1120038 60.6789497 34.4120038 56.6789497 66.0420038"></polygon>
                        <polygon id="Path" fill="#EBEBEB" points="81.4189497 51.7720038 85.4189497 20.1320038 76.2289497 25.4420038 72.2289497 57.0720038"></polygon>
                        <polygon id="Path" fill="#EBEBEB" points="96.9589497 42.7920038 100.95895 11.1620038 91.7689497 16.4620038 87.7689497 48.0920038"></polygon>
                        <polygon id="Path" fill="#FAFAFA" points="29.5989497 52.3520038 28.0889497 51.4920038 37.2789497 46.1820038 38.7889497 47.0520038"></polygon>
                        <polygon id="Path" fill="#FAFAFA" points="45.1389497 43.3820038 43.6289497 42.5120038 52.8289497 37.2120038 54.3289497 38.0820038"></polygon>
                        <polygon id="Path" fill="#FAFAFA" points="60.6789497 34.4120038 59.1789497 33.5420038 68.3689497 28.2420038 69.8789497 29.1120038"></polygon>
                        <polygon id="Path" fill="#FAFAFA" points="76.2289497 25.4420038 74.7189497 24.5720038 83.9189497 19.2620038 85.4189497 20.1320038"></polygon>
                        <polygon id="Path" fill="#FAFAFA" points="91.7689497 16.4620038 90.2589497 15.5920038 99.4589497 10.2920038 100.95895 11.1620038"></polygon>
                        <polygon id="Path" fill="#FAFAFA" points="14.7589497 60.9320038 13.2489497 60.0620038 21.7389497 55.1620038 23.2489497 56.0320038"></polygon>
                    </g>
                </g>
                <g id="freepik--Laptop--inject-8" transform="translate(68.980000, 0.000000)">
                    <path d="M8.54,325.664032 C8.54,329.224032 11.21,333.664032 14.54,335.544032 L153.83,415.994032 C157.568973,417.894752 161.991027,417.894752 165.73,415.994032 L383.08,290.514032 C386.36,288.614032 389.03,284.184032 389.03,280.624032 C389.03,277.064032 386.36,272.624032 383.08,270.744032 L243.75,190.294032 C240.007149,188.394791 235.582851,188.394791 231.84,190.294032 L14.5,315.774032 C11.21,317.674032 8.54,322.144032 8.54,325.664032 Z" id="Path" fill="#37474F"></path>
                    <path d="M14.5,322.654032 L153.83,403.144032 C157.568973,405.044752 161.991027,405.044752 165.73,403.144032 L383.08,277.614032 C386.36,275.714032 386.36,272.614032 383.08,270.744032 L243.75,190.294032 C240.007149,188.394791 235.582851,188.394791 231.84,190.294032 L14.5,315.774032 C11.21,317.674032 11.21,320.754032 14.5,322.654032 Z" id="Path" fill="#363636"></path>
                    <path d="M159.78,404.534032 L159.78,417.414032 C157.69103,417.465844 155.624148,416.976682 153.78,415.994032 L14.49,335.544032 C11.21,333.654032 8.49,329.224032 8.49,325.664032 C8.49,322.324032 10.84,318.224032 13.84,316.164032 C11.17,318.074032 11.38,320.884032 14.44,322.654032 L153.83,403.144032 C155.662076,404.107908 157.710505,404.586448 159.78,404.534032 Z" id="Path" fill="#263238"></path>
                    <path d="M234.2,1.70403243 C231.41,-0.515967573 226.63,-0.495967573 223.34,1.40403243 L6,126.884032 C2.46783217,129.164879 0.238156269,132.996205 0,137.194032 L0,307.404032 L0,307.404032 C0,311.204032 2.36,315.404032 5.69,316.654032 C9.2,318.004032 11.19,317.654032 14.47,315.744032 L14.47,315.744032 L231.84,190.294032 C235.374588,188.015498 237.605049,184.182822 237.84,179.984032 L237.84,9.77403243 C237.79,5.97403243 237.11,4.02403243 234.2,1.70403243 Z" id="Path" fill="#37474F"></path>
                    <path d="M237.8,9.76403243 C237.8,5.97403243 235.13,4.44403243 231.8,6.33403243 L14.49,131.824032 C12.7321493,132.923376 11.2859837,134.455623 10.29,136.274032 L1.79,131.334032 L1.79,131.334032 C2.79624627,129.516623 4.24849698,127.985221 6.01,126.884032 L223.34,1.40403243 C226.62,-0.495967573 231.42,-0.535967573 234.19,1.70403243 C237.12,4.06403243 237.8,5.97403243 237.8,9.76403243 Z" id="Path" fill="#455A64"></path>
                    <path d="M8.57,312.324032 L8.57,142.124032 C8.64325916,140.053293 9.2457413,138.035839 10.32,136.264032 L10.32,136.264032 L1.82,131.344032 C0.746444579,133.095421 0.137250331,135.091651 0.05,137.144032 L0.05,307.424032 C0.05,311.224032 2.42,315.424032 5.74,316.674032 C9.25,318.024032 11.25,317.674032 14.53,315.764032 C11.24,317.664032 8.57,316.144032 8.57,312.324032 Z" id="Path" fill="#263238"></path>
                    <path d="M17.7,138.684032 L226.86,17.9540324 C228.86,16.8240324 230.43,17.7440324 230.43,20.0240324 L230.43,178.314032 C230.294492,180.828399 228.968485,183.127554 226.86,184.504032 L17.7,305.224032 C15.7,306.364032 14.13,305.444032 14.13,303.164032 L14.13,144.874032 C14.2655082,142.359666 15.5915154,140.060511 17.7,138.684032 Z" id="Path" fill="#000000"></path>
                    <path d="M17.7,138.684032 C15.5915154,140.060511 14.2655082,142.359666 14.13,144.874032 L14.13,300.404032 L220.9,181.064032 C223.008485,179.687554 224.334492,177.388399 224.47,174.874032 L224.47,19.3340324 L17.7,138.684032 Z" id="Path" fill="#FFFFFF"></path>
                    <path d="M225.56,261.474032 L231.82,257.864032 C232.08,257.714032 232.11,257.474032 231.87,257.344032 L225.87,253.884032 C225.584238,253.738021 225.245762,253.738021 224.96,253.884032 L218.71,257.504032 C218.44,257.654032 218.42,257.884032 218.65,258.024032 L224.65,261.474032 C224.935762,261.620044 225.274238,261.620044 225.56,261.474032 Z M216.43,248.984032 L210.18,252.594032 C209.91,252.744032 209.89,252.984032 210.13,253.124032 L216.13,256.574032 C216.415762,256.720044 216.754238,256.720044 217.04,256.574032 L223.29,252.964032 C223.56,252.804032 223.58,252.574032 223.34,252.434032 L217.34,248.984032 C217.054238,248.838021 216.715762,248.838021 216.43,248.984032 Z M196.23,260.654032 L185.63,266.764032 C185.36,266.914032 185.34,267.144032 185.57,267.284032 L191.57,270.734032 C191.855762,270.880044 192.194238,270.880044 192.48,270.734032 L203.07,264.624032 C203.33,264.474032 203.36,264.234032 203.12,264.104032 L197.12,260.644032 C196.838121,260.50788 196.508749,260.51158 196.23,260.654032 Z M207.29,254.264032 L201.04,257.874032 C200.77,258.024032 200.75,258.264032 200.99,258.394032 L206.99,261.854032 C207.275762,262.000044 207.614238,262.000044 207.9,261.854032 L214.15,258.244032 C214.42,258.084032 214.44,257.854032 214.2,257.714032 L208.2,254.264032 C207.914238,254.118021 207.575762,254.118021 207.29,254.264032 Z M182.76,268.424032 L176.51,272.034032 C176.24,272.194032 176.22,272.424032 176.45,272.564032 L182.45,276.014032 C182.733048,276.156661 183.066952,276.156661 183.35,276.014032 L189.61,272.404032 C189.87,272.254032 189.9,272.014032 189.61,271.874032 L183.61,268.424032 C183.340766,268.297624 183.029234,268.297624 182.76,268.424032 L182.76,268.424032 Z M173.63,273.704032 L167.38,277.314032 C167.11,277.464032 167.09,277.704032 167.32,277.834032 L173.32,281.294032 C173.603048,281.436661 173.936952,281.436661 174.22,281.294032 L180.48,277.684032 C180.74,277.524032 180.77,277.294032 180.48,277.154032 L174.48,273.704032 C174.210766,273.577624 173.899234,273.577624 173.63,273.704032 Z M197.08,287.794032 L203.33,284.184032 C203.6,284.034032 203.62,283.794032 203.39,283.664032 L197.39,280.204032 C197.106952,280.061404 196.773048,280.061404 196.49,280.204032 L190.23,283.824032 C189.97,283.974032 189.94,284.204032 190.18,284.344032 L196.18,287.794032 C196.460316,287.933325 196.789684,287.933325 197.07,287.794032 L197.08,287.794032 Z M187.94,293.074032 L194.19,289.464032 C194.46,289.314032 194.48,289.074032 194.25,288.934032 L188.25,285.484032 C187.966952,285.341404 187.633048,285.341404 187.35,285.484032 L181.09,289.144032 C180.83,289.304032 180.8,289.534032 181.09,289.674032 L187.09,293.124032 C187.363726,293.231719 187.670981,293.21343 187.93,293.074032 L187.94,293.074032 Z M178.8,298.354032 L185.05,294.744032 C185.32,294.584032 185.34,294.354032 185.11,294.214032 L179.11,290.764032 C178.826952,290.621404 178.493048,290.621404 178.21,290.764032 L171.95,294.374032 C171.69,294.524032 171.66,294.764032 171.95,294.894032 L177.95,298.354032 C178.216426,298.477334 178.523574,298.477334 178.79,298.354032 L178.8,298.354032 Z M169.63,303.624032 L175.88,300.014032 C176.15,299.864032 176.17,299.624032 175.94,299.494032 L169.94,296.034032 C169.656952,295.891404 169.323048,295.891404 169.04,296.034032 L162.78,299.644032 C162.52,299.794032 162.49,300.024032 162.73,300.164032 L168.73,303.614032 C169.01146,303.759816 169.34537,303.763526 169.63,303.624032 Z M216.4,266.754032 L222.66,263.144032 C222.92,262.994032 222.95,262.754032 222.71,262.624032 L216.71,259.164032 C216.424238,259.018021 216.085762,259.018021 215.8,259.164032 L209.63,262.804032 C209.36,262.964032 209.34,263.194032 209.57,263.334032 L215.57,266.784032 C215.843679,266.901027 216.15525,266.89003 216.42,266.754032 L216.4,266.754032 Z M206.19,282.524032 L220.14,274.464032 C220.41,274.314032 220.43,274.074032 220.19,273.944032 L205.66,265.554032 C205.376952,265.411404 205.043048,265.411404 204.76,265.554032 L197.54,269.724032 C197.27,269.874032 197.25,270.104032 197.49,270.244032 L205.18,274.684032 C205.41,274.824032 205.39,275.054032 205.12,275.214032 L199.35,278.544032 C199.09,278.694032 199.06,278.934032 199.3,279.064032 L205.3,282.524032 C205.585762,282.670044 205.924238,282.670044 206.21,282.524032 L206.19,282.524032 Z M164.46,278.984032 L158.21,282.594032 C157.94,282.744032 157.92,282.974032 158.15,283.114032 L164.15,286.564032 C164.433048,286.706661 164.766952,286.706661 165.05,286.564032 L171.31,282.954032 C171.57,282.804032 171.6,282.564032 171.36,282.434032 L165.36,278.974032 C165.080888,278.841174 164.756021,278.844866 164.48,278.984032 L164.46,278.984032 Z M155.32,284.254032 L149.07,287.864032 C148.8,288.024032 148.78,288.254032 149.01,288.394032 L155.01,291.844032 C155.293048,291.986661 155.626952,291.986661 155.91,291.844032 L162.17,288.234032 C162.43,288.084032 162.46,287.844032 162.17,287.714032 L156.17,284.254032 C155.906397,284.133794 155.603603,284.133794 155.34,284.254032 L155.32,284.254032 Z M104.74,340.594032 C105.025762,340.740044 105.364238,340.740044 105.65,340.594032 L111.9,336.984032 C112.17,336.834032 112.19,336.594032 111.96,336.464032 L105.96,333.004032 C105.674238,332.858021 105.335762,332.858021 105.05,333.004032 L98.79,336.614032 C98.53,336.774032 98.5,337.004032 98.79,337.144032 L104.74,340.594032 Z M82.2,326.474032 L75.95,330.084032 C75.68,330.234032 75.66,330.474032 75.89,330.604032 L81.89,334.064032 C82.1757625,334.210044 82.5142375,334.210044 82.8,334.064032 L89.05,330.444032 C89.31,330.294032 89.34,330.064032 89.05,329.924032 L83.05,326.474032 C82.7863971,326.353794 82.4836029,326.353794 82.22,326.474032 L82.2,326.474032 Z M93.79,337.054032 C94.0757625,337.200044 94.4142375,337.200044 94.7,337.054032 L100.95,333.444032 C101.22,333.284032 101.24,333.054032 101.01,332.914032 L95.01,329.464032 C94.7269524,329.321404 94.3930476,329.321404 94.11,329.464032 L87.85,333.074032 C87.59,333.224032 87.56,333.464032 87.8,333.594032 L93.79,337.054032 Z M119.01,342.724032 L125.26,339.114032 C125.53,338.954032 125.55,338.724032 125.32,338.584032 L119.32,335.134032 C119.034238,334.988021 118.695762,334.988021 118.41,335.134032 L112.16,338.744032 C111.9,338.894032 111.87,339.134032 112.11,339.274032 L118.11,342.724032 C118.398461,342.873474 118.741539,342.873474 119.03,342.724032 L119.01,342.724032 Z M108.96,348.034032 C109.245762,348.180044 109.584238,348.180044 109.87,348.034032 L116.12,344.424032 C116.39,344.264032 116.41,344.034032 116.18,343.894032 L110.18,340.444032 C109.894238,340.298021 109.555762,340.298021 109.27,340.444032 L103.02,344.054032 C102.76,344.204032 102.73,344.444032 103.02,344.574032 L108.96,348.034032 Z M91.34,321.194032 L85.09,324.804032 C84.82,324.954032 84.8,325.194032 85.03,325.334032 L91.03,328.784032 C91.3130476,328.926661 91.6469524,328.926661 91.93,328.784032 L98.19,325.174032 C98.45,325.014032 98.48,324.784032 98.24,324.644032 L92.24,321.194032 C91.962431,321.058029 91.637569,321.058029 91.36,321.194032 L91.34,321.194032 Z M137.04,294.814032 L130.79,298.424032 C130.52,298.574032 130.5,298.804032 130.73,298.944032 L136.73,302.404032 C137.013048,302.546661 137.346952,302.546661 137.63,302.404032 L143.89,298.794032 C144.15,298.644032 144.18,298.414032 143.89,298.274032 L137.89,294.824032 C137.627848,294.700609 137.32505,294.696961 137.06,294.814032 L137.04,294.814032 Z M100.48,315.914032 L94.23,319.524032 C93.96,319.684032 93.94,319.914032 94.17,320.054032 L100.17,323.504032 C100.453048,323.646661 100.786952,323.646661 101.07,323.504032 L107.33,319.894032 C107.59,319.744032 107.62,319.504032 107.33,319.374032 L101.33,315.914032 C101.066397,315.793794 100.763603,315.793794 100.5,315.914032 L100.48,315.914032 Z M146.18,289.534032 L139.95,293.144032 C139.68,293.294032 139.66,293.534032 139.89,293.664032 L145.89,297.124032 C146.173048,297.266661 146.506952,297.266661 146.79,297.124032 L153.05,293.514032 C153.31,293.354032 153.34,293.124032 153.1,292.984032 L147.1,289.534032 C146.816952,289.391404 146.483048,289.391404 146.2,289.534032 L146.18,289.534032 Z M127.9,300.084032 L121.63,303.694032 C121.36,303.854032 121.34,304.084032 121.57,304.224032 L127.57,307.674032 C127.853048,307.816661 128.186952,307.816661 128.47,307.674032 L134.73,304.064032 C134.99,303.914032 135.02,303.674032 134.78,303.544032 L128.78,300.084032 C128.507972,299.954471 128.192028,299.954471 127.92,300.084032 L127.9,300.084032 Z M118.76,305.364032 L112.51,308.974032 C112.24,309.124032 112.22,309.364032 112.45,309.494032 L118.45,312.954032 C118.733048,313.096661 119.066952,313.096661 119.35,312.954032 L125.61,309.344032 C125.87,309.184032 125.9,308.954032 125.61,308.814032 L119.61,305.364032 C119.346397,305.243794 119.043603,305.243794 118.78,305.364032 L118.76,305.364032 Z M109.63,310.644032 L103.38,314.254032 C103.11,314.404032 103.09,314.644032 103.32,314.774032 L109.32,318.234032 C109.603048,318.376661 109.936952,318.376661 110.22,318.234032 L116.48,314.614032 C116.74,314.464032 116.77,314.234032 116.53,314.094032 L110.53,310.644032 C110.246952,310.501404 109.913048,310.501404 109.63,310.644032 Z M151.37,314.144032 L157.62,310.534032 C157.89,310.374032 157.91,310.144032 157.68,310.004032 L151.68,306.554032 C151.396952,306.411404 151.063048,306.411404 150.78,306.554032 L144.52,310.164032 C144.26,310.314032 144.23,310.554032 144.47,310.684032 L150.47,314.144032 C150.753048,314.286661 151.086952,314.286661 151.37,314.144032 Z M236.63,237.324032 L230.37,240.934032 C230.11,241.084032 230.08,241.314032 230.32,241.454032 L236.32,244.904032 C236.605762,245.050044 236.944238,245.050044 237.23,244.904032 L243.48,241.294032 C243.75,241.144032 243.77,240.914032 243.54,240.774032 L237.54,237.314032 C237.252635,237.171151 236.914155,237.174871 236.63,237.324032 Z M225.56,243.704032 L219.31,247.314032 C219.04,247.474032 219.02,247.704032 219.26,247.844032 L225.26,251.294032 C225.545762,251.440044 225.884238,251.440044 226.17,251.294032 L232.42,247.684032 C232.69,247.534032 232.71,247.294032 232.47,247.164032 L226.47,243.704032 C226.186952,243.561404 225.853048,243.561404 225.57,243.704032 L225.56,243.704032 Z M245.77,232.044032 L239.51,235.654032 C239.25,235.804032 239.22,236.044032 239.46,236.174032 L245.46,239.634032 C245.745762,239.780044 246.084238,239.780044 246.37,239.634032 L252.62,236.024032 C252.89,235.864032 252.91,235.634032 252.68,235.494032 L246.68,232.044032 C246.396952,231.901404 246.063048,231.901404 245.78,232.044032 L245.77,232.044032 Z M195.25,278.974032 L201.5,275.364032 C201.77,275.214032 201.79,274.974032 201.55,274.844032 L195.55,271.384032 C195.264238,271.238021 194.925762,271.238021 194.64,271.384032 L188.39,274.994032 C188.12,275.154032 188.1,275.384032 188.34,275.524032 L194.34,278.974032 C194.628461,279.123474 194.971539,279.123474 195.26,278.974032 L195.25,278.974032 Z M255.81,226.734032 C255.526952,226.591404 255.193048,226.591404 254.91,226.734032 L248.63,230.374032 C248.37,230.534032 248.34,230.764032 248.63,230.904032 L254.63,234.354032 C254.915762,234.500044 255.254238,234.500044 255.54,234.354032 L261.79,230.744032 C262.06,230.594032 262.08,230.354032 261.85,230.224032 L255.81,226.734032 Z M160.5,308.904032 L166.75,305.294032 C167.02,305.144032 167.04,304.904032 166.81,304.774032 L160.81,301.314032 C160.526952,301.171404 160.193048,301.171404 159.91,301.314032 L153.63,304.954032 C153.37,305.114032 153.34,305.344032 153.63,305.484032 L159.63,308.934032 C159.912188,309.060662 160.237091,309.049585 160.51,308.904032 L160.5,308.904032 Z M272.63,244.194032 L278.89,240.584032 C279.15,240.434032 279.18,240.194032 278.89,240.054032 L272.89,236.604032 C272.604238,236.458021 272.265762,236.458021 271.98,236.604032 L265.73,240.214032 C265.46,240.364032 265.44,240.604032 265.67,240.744032 L271.67,244.194032 C271.969079,244.357674 272.330921,244.357674 272.63,244.194032 Z M254.95,244.534032 L261.2,240.924032 C261.47,240.774032 261.49,240.534032 261.25,240.404032 L255.25,236.944032 C254.964238,236.798021 254.625762,236.798021 254.34,236.944032 L248.09,240.554032 C247.82,240.714032 247.8,240.944032 248.04,241.084032 L254.04,244.534032 C254.314806,244.666792 254.635194,244.666792 254.91,244.534032 L254.95,244.534032 Z M264.41,231.674032 C264.124238,231.528021 263.785762,231.528021 263.5,231.674032 L257.25,235.284032 C256.98,235.434032 256.96,235.674032 257.2,235.804032 L263.2,239.264032 C263.485762,239.410044 263.824238,239.410044 264.11,239.264032 L270.36,235.654032 C270.63,235.504032 270.65,235.274032 270.41,235.134032 L264.41,231.674032 Z M266.34,230.554032 L280.86,238.944032 C281.145762,239.090044 281.484238,239.090044 281.77,238.944032 L288.03,235.334032 C288.29,235.184032 288.32,234.944032 288.08,234.814032 L273.55,226.424032 C273.264238,226.278021 272.925762,226.278021 272.64,226.424032 L266.39,230.034032 C266.08,230.144032 266.06,230.424032 266.3,230.554032 L266.34,230.554032 Z M245.22,242.254032 L238.97,245.864032 C238.7,246.014032 238.68,246.254032 238.92,246.394032 L244.92,249.844032 C245.205762,249.990044 245.544238,249.990044 245.83,249.844032 L252.08,246.234032 C252.35,246.074032 252.37,245.844032 252.13,245.704032 L246.13,242.254032 C245.833549,242.094013 245.476451,242.094013 245.18,242.254032 L245.22,242.254032 Z M176.43,281.974032 L170.18,285.584032 C169.91,285.734032 169.89,285.964032 170.18,286.104032 L176.18,289.554032 C176.465762,289.700044 176.804238,289.700044 177.09,289.554032 L183.34,285.944032 C183.61,285.794032 183.63,285.564032 183.34,285.424032 L177.34,281.964032 C177.041867,281.807124 176.684764,281.810883 176.39,281.974032 L176.43,281.974032 Z M262.59,249.504032 C262.873048,249.646661 263.206952,249.646661 263.49,249.504032 L269.75,245.894032 C270.01,245.734032 270.04,245.504032 269.8,245.364032 L263.8,241.914032 C263.514238,241.768021 263.175762,241.768021 262.89,241.914032 L256.63,245.524032 C256.36,245.674032 256.34,245.914032 256.57,246.044032 L262.59,249.504032 Z M185.59,276.694032 L179.34,280.304032 C179.07,280.454032 179.05,280.694032 179.29,280.824032 L185.29,284.284032 C185.575762,284.430044 185.914238,284.430044 186.2,284.284032 L192.45,280.674032 C192.72,280.514032 192.74,280.284032 192.5,280.144032 L186.5,276.694032 C186.198312,276.526718 185.831688,276.526718 185.53,276.694032 L185.59,276.694032 Z M113.96,335.324032 C114.245762,335.470044 114.584238,335.470044 114.87,335.324032 L121.12,331.714032 C121.39,331.564032 121.41,331.334032 121.18,331.194032 L115.18,327.744032 C114.894238,327.598021 114.555762,327.598021 114.27,327.744032 L108.01,331.354032 C107.75,331.504032 107.72,331.744032 107.96,331.874032 L113.96,335.324032 Z M103.28,324.144032 L97.02,327.754032 C96.76,327.904032 96.73,328.144032 97.02,328.284032 L103.02,331.734032 C103.305762,331.880044 103.644238,331.880044 103.93,331.734032 L110.18,328.124032 C110.45,327.974032 110.47,327.734032 110.24,327.594032 L104.24,324.144032 C103.940921,323.98039 103.579079,323.98039 103.28,324.144032 Z M123.95,329.974032 L130.2,326.364032 C130.47,326.204032 130.49,325.974032 130.26,325.834032 L124.26,322.384032 C123.974238,322.238021 123.635762,322.238021 123.35,322.384032 L117.09,325.994032 C116.83,326.144032 116.8,326.384032 117.09,326.514032 L123.09,329.974032 C123.355959,330.1164 123.671974,330.131098 123.95,330.014032 L123.95,329.974032 Z M133.09,324.694032 L139.34,321.084032 C139.61,320.934032 139.63,320.694032 139.4,320.564032 L133.4,317.104032 C133.116952,316.961404 132.783048,316.961404 132.5,317.104032 L126.24,320.714032 C125.98,320.874032 125.95,321.104032 126.19,321.244032 L132.19,324.694032 C132.466664,324.849397 132.800644,324.86424 133.09,324.734032 L133.09,324.694032 Z M142.23,319.414032 L148.48,315.804032 C148.75,315.654032 148.77,315.424032 148.54,315.284032 L142.54,311.834032 C142.256952,311.691404 141.923048,311.691404 141.64,311.834032 L135.38,315.444032 C135.12,315.594032 135.09,315.834032 135.38,315.964032 L141.38,319.424032 C141.64475,319.56003 141.956321,319.571027 142.23,319.454032 L142.23,319.414032 Z M112.41,318.864032 L106.16,322.474032 C105.9,322.634032 105.87,322.864032 106.11,323.004032 L112.11,326.454032 C112.395762,326.600044 112.734238,326.600044 113.02,326.454032 L119.27,322.844032 C119.54,322.694032 119.56,322.454032 119.33,322.324032 L113.33,318.864032 C113.035074,318.726972 112.691917,318.741892 112.41,318.904032 L112.41,318.864032 Z M121.55,313.594032 L115.3,317.204032 C115.04,317.354032 115.01,317.594032 115.3,317.724032 L121.3,321.184032 C121.585762,321.330044 121.924238,321.330044 122.21,321.184032 L128.46,317.564032 C128.73,317.414032 128.75,317.184032 128.52,317.044032 L122.52,313.594032 C122.211447,313.438994 121.84474,313.454116 121.55,313.634032 L121.55,313.594032 Z M158.11,292.484032 L151.86,296.144032 C151.59,296.294032 151.57,296.534032 151.86,296.664032 L157.86,300.124032 C158.145762,300.270044 158.484238,300.270044 158.77,300.124032 L165.02,296.514032 C165.29,296.354032 165.31,296.124032 165.08,295.984032 L159.08,292.534032 C158.780039,292.363598 158.413411,292.359818 158.11,292.524032 L158.11,292.484032 Z M148.97,297.764032 L142.72,301.374032 C142.46,301.524032 142.43,301.764032 142.67,301.894032 L148.67,305.354032 C148.955762,305.500044 149.294238,305.500044 149.58,305.354032 L155.83,301.744032 C156.1,301.594032 156.12,301.364032 155.89,301.224032 L149.89,297.774032 C149.596685,297.633907 149.253563,297.645096 148.97,297.804032 L148.97,297.764032 Z M167.25,287.204032 L161,290.814032 C160.73,290.974032 160.71,291.204032 160.95,291.344032 L166.95,294.794032 C167.235762,294.940044 167.574238,294.940044 167.86,294.794032 L174.11,291.184032 C174.38,291.034032 174.4,290.794032 174.11,290.664032 L168.11,287.204032 C167.831974,287.086967 167.515959,287.101665 167.25,287.244032 L167.25,287.204032 Z M130.69,308.314032 L124.44,311.924032 C124.18,312.074032 124.15,312.314032 124.39,312.454032 L130.39,315.904032 C130.675762,316.050044 131.014238,316.050044 131.3,315.904032 L137.55,312.294032 C137.82,312.134032 137.84,311.904032 137.61,311.764032 L131.61,308.314032 C131.315074,308.176972 130.971917,308.191892 130.69,308.354032 L130.69,308.314032 Z M139.83,303.034032 L133.63,306.684032 C133.37,306.844032 133.34,307.074032 133.63,307.214032 L139.63,310.664032 C139.915762,310.810044 140.254238,310.810044 140.54,310.664032 L146.79,307.054032 C147.06,306.904032 147.08,306.664032 146.85,306.534032 L140.85,303.074032 C140.535557,302.887598 140.144443,302.887598 139.83,303.074032 L139.83,303.034032 Z M128.17,337.444032 L134.42,333.834032 C134.69,333.684032 134.71,333.444032 134.48,333.314032 L128.48,329.854032 C128.194238,329.708021 127.855762,329.708021 127.57,329.854032 L121.32,333.464032 C121.05,333.624032 121.03,333.854032 121.32,333.994032 L127.32,337.444032 C127.589234,337.570441 127.900766,337.570441 128.17,337.444032 Z M79.97,335.144032 L73.97,331.684032 C73.6842375,331.538021 73.3457625,331.538021 73.06,331.684032 L66.81,335.304032 C66.54,335.454032 66.52,335.684032 66.75,335.824032 L72.75,339.274032 C73.0357625,339.420044 73.3742375,339.420044 73.66,339.274032 L79.91,335.664032 C80.18,335.544032 80.21,335.304032 79.97,335.144032 Z M91.89,338.144032 L85.89,334.684032 C85.6069524,334.541404 85.2730476,334.541404 84.99,334.684032 L75.36,340.244032 C75.1,340.394032 75.07,340.634032 75.31,340.764032 L81.31,344.224032 C81.5957625,344.370044 81.9342375,344.370044 82.22,344.224032 L91.84,338.664032 C92.1,338.534032 92.12,338.294032 91.89,338.144032 Z M71.04,328.334032 L65.04,324.874032 C64.7542375,324.728021 64.4157625,324.728021 64.13,324.874032 L56.43,329.324032 C56.17,329.474032 56.14,329.704032 56.43,329.844032 L62.43,333.294032 C62.7157625,333.440044 63.0542375,333.440044 63.34,333.294032 L71.04,328.854032 C71.25,328.724032 71.28,328.484032 71.04,328.354032 L71.04,328.334032 Z M76.94,324.924032 C77.2257625,325.070044 77.5642375,325.070044 77.85,324.924032 L84.11,321.314032 C84.37,321.154032 84.4,320.924032 84.16,320.784032 L78.16,317.334032 C77.8742375,317.188021 77.5357625,317.188021 77.25,317.334032 L70.99,320.944032 C70.73,321.094032 70.7,321.334032 70.99,321.464032 L76.94,324.924032 Z M102.84,341.684032 L96.84,338.234032 C96.5542375,338.088021 96.2157625,338.088021 95.93,338.234032 L83.93,345.174032 C83.67,345.334032 83.64,345.564032 83.93,345.704032 L89.93,349.154032 C90.2157625,349.300044 90.5542375,349.300044 90.84,349.154032 L102.84,342.214032 C103.05,342.074032 103.07,341.844032 102.84,341.704032 L102.84,341.684032 Z M107.06,349.124032 L101.06,345.664032 C100.774238,345.518021 100.435762,345.518021 100.15,345.664032 L92.47,350.144032 C92.2,350.294032 92.18,350.534032 92.41,350.664032 L98.41,354.124032 C98.6957625,354.270044 99.0342375,354.270044 99.32,354.124032 L107.01,349.674032 C107.27,349.514032 107.29,349.274032 107.06,349.144032 L107.06,349.124032 Z M144.9,285.684032 C145.185762,285.830044 145.524238,285.830044 145.81,285.684032 L152.06,282.074032 C152.33,281.924032 152.35,281.684032 152.06,281.554032 L146.06,278.094032 C145.774238,277.948021 145.435762,277.948021 145.15,278.094032 L138.9,281.704032 C138.63,281.854032 138.61,282.084032 138.85,282.224032 L144.9,285.684032 Z M126.63,296.264032 C126.915762,296.410044 127.254238,296.410044 127.54,296.264032 L133.79,292.654032 C134.06,292.494032 134.08,292.264032 133.79,292.124032 L127.79,288.674032 C127.504238,288.528021 127.165762,288.528021 126.88,288.674032 L120.63,292.284032 C120.36,292.434032 120.34,292.674032 120.58,292.804032 L126.63,296.264032 Z M86.09,319.664032 C86.3757625,319.810044 86.7142375,319.810044 87,319.664032 L93.25,316.054032 C93.52,315.904032 93.54,315.664032 93.31,315.534032 L87.31,312.074032 C87.0242375,311.928021 86.6857625,311.928021 86.4,312.074032 L80.14,315.684032 C79.88,315.844032 79.85,316.074032 80.09,316.214032 L86.09,319.664032 Z M135.77,290.984032 C136.055762,291.130044 136.394238,291.130044 136.68,290.984032 L142.93,287.374032 C143.2,287.224032 143.22,286.984032 142.98,286.854032 L136.98,283.394032 C136.694238,283.248021 136.355762,283.248021 136.07,283.394032 L129.82,287.004032 C129.55,287.164032 129.53,287.394032 129.82,287.534032 L135.77,290.984032 Z M117.48,301.544032 C117.765762,301.690044 118.104238,301.690044 118.39,301.544032 L124.64,297.934032 C124.91,297.784032 124.93,297.554032 124.69,297.414032 L118.69,293.954032 C118.404238,293.808021 118.065762,293.808021 117.78,293.954032 L111.53,297.564032 C111.26,297.714032 111.24,297.954032 111.53,298.084032 L117.48,301.544032 Z M111.54,349.544032 C111.256952,349.401404 110.923048,349.401404 110.64,349.544032 L101.01,355.144032 C100.75,355.304032 100.73,355.534032 101.01,355.674032 L107.01,359.124032 C107.295762,359.270044 107.634238,359.270044 107.92,359.124032 L117.54,353.574032 C117.81,353.414032 117.83,353.184032 117.6,353.044032 L111.54,349.544032 Z M104.36,309.144032 C104.645762,309.290044 104.984238,309.290044 105.27,309.144032 L111.52,305.534032 C111.79,305.374032 111.81,305.144032 111.58,305.004032 L105.58,301.554032 C105.294238,301.408021 104.955762,301.408021 104.67,301.554032 L98.43,305.144032 C98.17,305.294032 98.14,305.534032 98.38,305.664032 L104.36,309.144032 Z M95.22,314.414032 C95.5057625,314.560044 95.8442375,314.560044 96.13,314.414032 L102.38,310.804032 C102.65,310.654032 102.67,310.424032 102.44,310.284032 L96.44,306.824032 C96.1542375,306.678021 95.8157625,306.678021 95.53,306.824032 L89.27,310.434032 C89.01,310.584032 88.98,310.814032 89.27,310.954032 L95.22,314.414032 Z M280.87,251.784032 C280.584238,251.638021 280.245762,251.638021 279.96,251.784032 L264.57,260.664032 C264.3,260.824032 264.28,261.054032 264.52,261.194032 L270.52,264.644032 C270.805762,264.790044 271.144238,264.790044 271.43,264.644032 L286.82,255.754032 C287.09,255.604032 287.11,255.374032 286.87,255.234032 L280.87,251.784032 Z M260.63,263.414032 C260.344238,263.268021 260.005762,263.268021 259.72,263.414032 L253.47,267.024032 C253.2,267.184032 253.18,267.414032 253.41,267.554032 L259.41,271.004032 C259.695762,271.150044 260.034238,271.150044 260.32,271.004032 L266.58,267.394032 C266.84,267.244032 266.87,267.004032 266.58,266.864032 L260.63,263.414032 Z M137.31,332.144032 L143.56,328.524032 C143.83,328.374032 143.85,328.144032 143.62,328.004032 L137.62,324.554032 C137.334238,324.408021 136.995762,324.408021 136.71,324.554032 L130.46,328.164032 C130.19,328.314032 130.17,328.554032 130.41,328.684032 L136.41,332.144032 C136.693048,332.286661 137.026952,332.286661 137.31,332.144032 Z M242.39,273.934032 C242.104238,273.788021 241.765762,273.788021 241.48,273.934032 L235.23,277.544032 C234.96,277.694032 234.94,277.924032 235.17,278.064032 L241.17,281.514032 C241.455762,281.660044 241.794238,281.660044 242.08,281.514032 L248.34,277.904032 C248.6,277.754032 248.63,277.514032 248.39,277.384032 L242.39,273.934032 Z M290.01,246.444032 C289.724238,246.298021 289.385762,246.298021 289.1,246.444032 L282.85,250.144032 C282.58,250.294032 282.56,250.534032 282.8,250.664032 L288.8,254.124032 C289.085762,254.270044 289.424238,254.270044 289.71,254.124032 L295.96,250.514032 C296.23,250.354032 296.25,250.124032 296.01,249.984032 L290.01,246.444032 Z M305.13,244.624032 L290.63,236.264032 C290.346952,236.121404 290.013048,236.121404 289.73,236.264032 L283.47,239.874032 C283.21,240.024032 283.18,240.264032 283.42,240.394032 L297.95,248.784032 C298.235762,248.930044 298.574238,248.930044 298.86,248.784032 L305.11,245.174032 C305.35,245.024032 305.37,244.784032 305.13,244.654032 L305.13,244.624032 Z M208.23,293.624032 C207.946952,293.481404 207.613048,293.481404 207.33,293.624032 L199.63,298.144032 C199.36,298.294032 199.34,298.534032 199.58,298.664032 L205.58,302.124032 C205.865762,302.270044 206.204238,302.270044 206.49,302.124032 L214.18,297.674032 C214.45,297.524032 214.47,297.284032 214.24,297.154032 L208.23,293.624032 Z M231.32,280.294032 C231.036952,280.151404 230.703048,280.151404 230.42,280.294032 L220.8,285.854032 C220.53,286.004032 220.51,286.244032 220.74,286.374032 L226.74,289.834032 C227.025762,289.980044 227.364238,289.980044 227.65,289.834032 L237.27,284.274032 C237.54,284.124032 237.56,283.884032 237.33,283.754032 L231.32,280.294032 Z M187.07,305.844032 C186.784238,305.698021 186.445762,305.698021 186.16,305.844032 L134.69,335.564032 C134.42,335.724032 134.4,335.954032 134.63,336.094032 L140.63,339.544032 C140.915762,339.690044 141.254238,339.690044 141.54,339.544032 L193.01,309.824032 C193.27,309.674032 193.3,309.434032 193.06,309.304032 L187.07,305.844032 Z M132.71,337.234032 C132.424238,337.088021 132.085762,337.088021 131.8,337.234032 L124.1,341.674032 C123.84,341.824032 123.81,342.064032 124.05,342.204032 L130.05,345.654032 C130.335762,345.800044 130.674238,345.800044 130.96,345.654032 L138.66,341.214032 C138.92,341.054032 138.95,340.824032 138.71,340.684032 L132.71,337.234032 Z M197.63,299.794032 C197.344238,299.648021 197.005762,299.648021 196.72,299.794032 L189.03,304.244032 C188.76,304.394032 188.74,304.634032 188.97,304.764032 L194.97,308.224032 C195.253048,308.366661 195.586952,308.366661 195.87,308.224032 L203.57,303.774032 C203.84,303.624032 203.86,303.384032 203.62,303.254032 L197.63,299.794032 Z M122.13,343.404032 C121.844238,343.258021 121.505762,343.258021 121.22,343.404032 L113.52,347.844032 C113.26,348.004032 113.23,348.234032 113.52,348.374032 L119.52,351.824032 C119.805762,351.970044 120.144238,351.970044 120.43,351.824032 L128.13,347.384032 C128.39,347.224032 128.42,346.994032 128.13,346.854032 L122.13,343.404032 Z M218.82,287.574032 C218.534238,287.428021 218.195762,287.428021 217.91,287.574032 L210.21,292.024032 C209.95,292.174032 209.92,292.414032 210.16,292.544032 L216.16,296.004032 C216.445762,296.150044 216.784238,296.150044 217.07,296.004032 L224.77,291.554032 C225.03,291.404032 225.06,291.164032 224.82,291.034032 L218.82,287.574032 Z M251.53,268.694032 C251.244238,268.548021 250.905762,268.548021 250.62,268.694032 L244.37,272.304032 C244.1,272.454032 244.08,272.694032 244.31,272.824032 L250.31,276.284032 C250.593048,276.426661 250.926952,276.426661 251.21,276.284032 L257.47,272.674032 C257.73,272.514032 257.76,272.284032 257.52,272.144032 L251.53,268.694032 Z M272,254.404032 L278.25,250.794032 C278.52,250.644032 278.54,250.404032 278.31,250.274032 L272.31,246.814032 C272.026952,246.671404 271.693048,246.671404 271.41,246.814032 L265.15,250.424032 C264.89,250.584032 264.86,250.814032 265.15,250.954032 L271.15,254.404032 C271.419234,254.530441 271.730766,254.530441 272,254.404032 Z M234.7,256.204032 L240.96,252.594032 C241.22,252.434032 241.25,252.204032 241.01,252.064032 L235.01,248.614032 C234.724238,248.468021 234.385762,248.468021 234.1,248.614032 L227.85,252.224032 C227.58,252.374032 227.56,252.614032 227.79,252.744032 L233.79,256.204032 C234.075762,256.350044 234.414238,256.350044 234.7,256.204032 Z M210.43,289.954032 L228.71,279.404032 C228.97,279.244032 229,279.014032 228.76,278.874032 L222.76,275.424032 C222.474238,275.278021 222.135762,275.278021 221.85,275.424032 L203.63,286.004032 C203.36,286.164032 203.34,286.394032 203.63,286.534032 L209.63,289.984032 C209.88921,290.085867 210.179145,290.074995 210.43,289.954032 Z M261.95,259.714032 C262.235762,259.860044 262.574238,259.860044 262.86,259.714032 L269.11,256.104032 C269.38,255.944032 269.4,255.714032 269.17,255.574032 L263.17,252.124032 C262.886952,251.981404 262.553048,251.981404 262.27,252.124032 L256.01,255.734032 C255.75,255.884032 255.72,256.124032 255.96,256.254032 L261.95,259.714032 Z M254.31,254.714032 L260.57,251.104032 C260.83,250.954032 260.86,250.714032 260.62,250.584032 L254.63,247.144032 C254.344238,246.998021 254.005762,246.998021 253.72,247.144032 L247.47,250.764032 C247.2,250.914032 247.18,251.144032 247.41,251.284032 L253.41,254.734032 C253.69146,254.879816 254.02537,254.883526 254.31,254.744032 L254.31,254.714032 Z M201.31,295.204032 L207.56,291.594032 C207.83,291.434032 207.85,291.204032 207.56,291.064032 L201.56,287.614032 C201.274238,287.468021 200.935762,287.468021 200.65,287.614032 L194.4,291.224032 C194.13,291.374032 194.11,291.614032 194.35,291.744032 L200.35,295.204032 C200.638787,295.369944 200.991221,295.381191 201.29,295.234032 L201.31,295.204032 Z M241.77,271.344032 C242.055762,271.490044 242.394238,271.490044 242.68,271.344032 L248.93,267.734032 C249.2,267.584032 249.22,267.344032 248.98,267.214032 L242.98,263.754032 C242.694238,263.608021 242.355762,263.608021 242.07,263.754032 L235.82,267.364032 C235.55,267.524032 235.53,267.754032 235.77,267.894032 L241.77,271.344032 Z M155.63,321.614032 L161.88,318.004032 C162.15,317.854032 162.17,317.614032 161.94,317.484032 L155.94,314.024032 C155.654238,313.878021 155.315762,313.878021 155.03,314.024032 L148.78,317.634032 C148.51,317.794032 148.49,318.024032 148.73,318.164032 L154.73,321.614032 C155.013048,321.756661 155.346952,321.756661 155.63,321.614032 Z M164.77,316.334032 L171.02,312.724032 C171.29,312.574032 171.31,312.344032 171.07,312.204032 L165.07,308.754032 C164.784238,308.608021 164.445762,308.608021 164.16,308.754032 L157.91,312.364032 C157.64,312.514032 157.62,312.754032 157.91,312.884032 L163.91,316.344032 C164.172193,316.458081 164.470666,316.454441 164.73,316.334032 L164.77,316.334032 Z M146.49,326.894032 L152.74,323.284032 C153.01,323.124032 153.03,322.894032 152.79,322.754032 L146.79,319.304032 C146.504238,319.158021 146.165762,319.158021 145.88,319.304032 L139.63,322.944032 C139.36,323.094032 139.34,323.334032 139.63,323.474032 L145.63,326.924032 C145.895039,327.031798 146.193544,327.020877 146.45,326.894032 L146.49,326.894032 Z M183.05,305.784032 L189.3,302.174032 C189.57,302.024032 189.59,301.784032 189.35,301.654032 L183.35,298.194032 C183.064238,298.048021 182.725762,298.048021 182.44,298.194032 L176.19,301.804032 C175.92,301.964032 175.9,302.194032 176.19,302.334032 L182.19,305.784032 C182.450766,305.901252 182.749234,305.901252 183.01,305.784032 L183.05,305.784032 Z M173.91,311.064032 L180.16,307.454032 C180.43,307.294032 180.45,307.064032 180.16,306.924032 L174.16,303.474032 C173.874238,303.328021 173.535762,303.328021 173.25,303.474032 L167.03,307.144032 C166.76,307.294032 166.74,307.534032 166.98,307.664032 L172.98,311.124032 C173.269648,311.244786 173.599181,311.22257 173.87,311.064032 L173.91,311.064032 Z M192.19,300.504032 L198.44,296.894032 C198.71,296.744032 198.73,296.504032 198.49,296.374032 L192.49,292.914032 C192.204238,292.768021 191.865762,292.768021 191.58,292.914032 L185.33,296.524032 C185.06,296.674032 185.04,296.904032 185.28,297.044032 L191.28,300.504032 C191.554806,300.636792 191.875194,300.636792 192.15,300.504032 L192.19,300.504032 Z M242.02,227.144032 C242.305762,227.290044 242.644238,227.290044 242.93,227.144032 L249.19,223.534032 C249.45,223.384032 249.47,223.154032 249.24,223.014032 L247.65,222.094032 C247.364238,221.948021 247.025762,221.948021 246.74,222.094032 L240.48,225.704032 C240.22,225.854032 240.2,226.094032 240.43,226.234032 L242.02,227.144032 Z M196.63,255.864032 C196.913048,256.006661 197.246952,256.006661 197.53,255.864032 L203.79,252.254032 C204.05,252.094032 204.08,251.864032 203.84,251.724032 L197.84,248.274032 C197.554238,248.128021 197.215762,248.128021 196.93,248.274032 L190.63,251.884032 C190.36,252.034032 190.34,252.274032 190.57,252.404032 L196.63,255.864032 Z M214.91,245.304032 C215.193048,245.446661 215.526952,245.446661 215.81,245.304032 L222.07,241.694032 C222.33,241.544032 222.36,241.304032 222.07,241.174032 L216.07,237.714032 C215.784238,237.568021 215.445762,237.568021 215.16,237.714032 L208.91,241.334032 C208.64,241.484032 208.62,241.714032 208.85,241.854032 L214.91,245.304032 Z M185.46,262.304032 C185.745762,262.450044 186.084238,262.450044 186.37,262.304032 L192.63,258.694032 C192.89,258.544032 192.92,258.304032 192.63,258.164032 L186.63,254.714032 C186.344238,254.568021 186.005762,254.568021 185.72,254.714032 L179.47,258.324032 C179.2,258.484032 179.18,258.714032 179.41,258.854032 L185.46,262.304032 Z M205.77,250.584032 C206.053048,250.726661 206.386952,250.726661 206.67,250.584032 L212.93,246.974032 C213.19,246.824032 213.22,246.584032 212.98,246.444032 L206.98,242.994032 C206.694238,242.848021 206.355762,242.848021 206.07,242.994032 L199.82,246.604032 C199.55,246.764032 199.53,246.994032 199.76,247.134032 L205.77,250.584032 Z M167.18,272.864032 C167.465762,273.010044 167.804238,273.010044 168.09,272.864032 L174.35,269.254032 C174.61,269.104032 174.64,268.874032 174.4,268.734032 L168.4,265.274032 C168.114238,265.128021 167.775762,265.128021 167.49,265.274032 L161.24,268.884032 C160.97,269.034032 160.95,269.264032 161.18,269.404032 L167.18,272.864032 Z M176.32,267.584032 C176.605762,267.730044 176.944238,267.730044 177.23,267.584032 L183.49,263.974032 C183.75,263.814032 183.78,263.584032 183.54,263.444032 L177.54,259.994032 C177.254238,259.848021 176.915762,259.848021 176.63,259.994032 L170.38,263.604032 C170.11,263.754032 170.09,263.994032 170.32,264.124032 L176.32,267.584032 Z M223.77,237.654032 C224.055762,237.800044 224.394238,237.800044 224.68,237.654032 L230.94,234.044032 C231.2,233.884032 231.23,233.654032 230.99,233.514032 L229.4,232.594032 C229.114238,232.448021 228.775762,232.448021 228.49,232.594032 L222.24,236.214032 C221.97,236.364032 221.94,236.594032 222.18,236.734032 L223.77,237.654032 Z M251.19,221.824032 C251.475762,221.970044 251.814238,221.970044 252.1,221.824032 L258.33,218.144032 C258.59,217.984032 258.62,217.754032 258.38,217.614032 L256.79,216.694032 C256.504238,216.548021 256.165762,216.548021 255.88,216.694032 L249.63,220.374032 C249.37,220.534032 249.34,220.764032 249.58,220.904032 L251.19,221.824032 Z M263.76,229.074032 C264.045762,229.220044 264.384238,229.220044 264.67,229.074032 L270.92,225.464032 C271.19,225.314032 271.21,225.074032 270.98,224.944032 L264.98,221.484032 C264.696952,221.341404 264.363048,221.341404 264.08,221.484032 L257.8,225.144032 C257.54,225.294032 257.51,225.524032 257.75,225.664032 L263.76,229.074032 Z M281.14,249.144032 L287.39,245.534032 C287.66,245.384032 287.68,245.144032 287.45,245.014032 L281.45,241.554032 C281.166952,241.411404 280.833048,241.411404 280.55,241.554032 L274.3,245.144032 C274.04,245.294032 274.01,245.524032 274.25,245.664032 L280.25,249.114032 C280.525597,249.262862 280.855006,249.273965 281.14,249.144032 Z M232.88,232.394032 C233.165762,232.540044 233.504238,232.540044 233.79,232.394032 L240.05,228.784032 C240.31,228.634032 240.34,228.394032 240.1,228.264032 L238.51,227.344032 C238.224238,227.198021 237.885762,227.198021 237.6,227.344032 L231.34,230.954032 C231.08,231.104032 231.05,231.344032 231.34,231.474032 L232.88,232.394032 Z M158.02,278.144032 C158.303048,278.286661 158.636952,278.286661 158.92,278.144032 L165.18,274.534032 C165.44,274.384032 165.47,274.144032 165.18,274.014032 L159.18,270.554032 C158.894238,270.408021 158.555762,270.408021 158.27,270.554032 L152.09,274.144032 C151.82,274.304032 151.8,274.534032 152.03,274.674032 L158.02,278.144032 Z" id="Shape" fill="#455A64"></path>
                </g>
                <g id="freepik--speech-bubble-1--inject-8" transform="translate(148.299781, 97.502788)">
                    <g id="freepik--Alert--inject-8" transform="translate(0.000000, 0.000000)">
                        <g id="freepik--Bubble--inject-8" transform="translate(-0.000000, 0.000000)">
                            <path d="M66.8602191,7.93124478 C60.0602191,4.07124478 50.7102191,4.64124478 40.3902191,10.6412448 C19.6102191,22.6412448 2.77021914,51.7912448 2.77021914,75.7812448 C2.77021914,87.7812448 6.98021914,96.1812448 13.7702191,100.111245 C16.6002191,101.751245 23.7702191,105.871245 26.6202191,107.501245 C33.4202191,111.421245 42.8102191,110.851245 53.1902191,104.861245 C73.9602191,92.8612448 90.8002191,63.7012448 90.8002191,39.7112448 C90.8002191,27.7112448 86.6102191,19.3512448 79.8002191,15.4012448 C77.0102191,13.7512448 69.7402191,9.57124478 66.8602191,7.93124478 Z" id="Path" fill="#FFC100"></path>
                            <path d="M66.8602191,7.93124478 C60.0602191,4.07124478 50.7102191,4.64124478 40.3902191,10.6412448 C19.6102191,22.6412448 2.77021914,51.7912448 2.77021914,75.7812448 C2.77021914,87.7812448 6.98021914,96.1812448 13.7702191,100.111245 C16.6002191,101.751245 23.7702191,105.871245 26.6202191,107.501245 C33.4202191,111.421245 42.8102191,110.851245 53.1902191,104.861245 C73.9602191,92.8612448 90.8002191,63.7012448 90.8002191,39.7112448 C90.8002191,27.7112448 86.6102191,19.3512448 79.8002191,15.4012448 C77.0102191,13.7512448 69.7402191,9.57124478 66.8602191,7.93124478 Z" id="Path" fill="#000000" opacity="0.15"></path>
                            <ellipse id="Oval" fill="#FFC100" transform="translate(53.195640, 61.427551) rotate(-60.000000) translate(-53.195640, -61.427551) " cx="53.1956402" cy="61.4275515" rx="53.2" ry="30.71"></ellipse>
                            <path d="M77.6002191,69.4212448 C77.6002191,69.4212448 79.3102191,84.3412448 95.8402191,88.0212448 C97.1102191,88.3012448 97.0502191,89.7312448 95.9802191,90.4912448 C93.9202191,91.9412448 86.5202191,95.0712448 78.2702191,93.0412448 C66.7802191,90.2012448 63.5102191,85.0412448 63.5102191,85.0412448 L77.6002191,69.4212448 Z" id="Path" fill="#FFC100"></path>
                        </g>
                        <g id="freepik--alert--inject-8" transform="translate(31.408617, 32.799981)">
                            <path d="M18.3916018,4.26126416 L0.611601787,55.5812642 C-1.23839821,60.9312642 1.25160179,62.9912642 6.15160179,60.1612642 L37.3616018,42.1612642 C42.2518803,39.3228191 43.9317904,33.0678347 41.1216018,28.1612642 L26.9016018,3.45126416 C24.0716018,-1.44873584 20.2416018,-1.08873584 18.3916018,4.26126416 Z" id="Path" fill="#FAFAFA"></path>
                            <path d="M23.6816018,34.9412642 L20.9716018,36.5012642 C20.7898171,36.6545082 20.5329169,36.6812875 20.3234354,36.568829 C20.1139539,36.4563705 19.9943224,36.2274532 20.0216018,35.9912642 L18.9016016,15.6812642 C18.9012923,15.0584332 19.2177802,14.4782054 19.7416018,14.1412642 L24.8716018,11.1412642 C25.3716018,10.8612642 25.7416018,11.1412642 25.7116018,11.6612642 L24.6116018,33.3612642 C24.5571349,34.0016765 24.2150802,34.5828017 23.6816018,34.9412642 L23.6816018,34.9412642 Z" id="Path" fill="#455A64"></path>
                            <path d="M22.3316018,45.8412642 C20.6016018,46.8412642 19.5616018,45.5412642 19.5616018,43.7512642 C19.5807042,41.6451307 20.6114453,39.6766755 22.3316018,38.4612642 C24.0616018,37.4612642 25.0916018,38.7512642 25.0916018,40.5512642 C25.0764482,42.6559914 24.0492471,44.6247934 22.3316018,45.8412642 Z" id="Path" fill="#455A64"></path>
                        </g>
                    </g>
                </g>
                <g id="freepik--cone--inject-8" transform="translate(292.420000, 360.592846)">
                    <path d="M62.69,41.9311869 L33.69,25.1911869 C32.4659354,24.57754 31.0240646,24.57754 29.8,25.1911869 L0.8,41.9311869 C0.35015867,42.1320649 0.0441252439,42.5605117 5.68434189e-14,43.0511869 L5.68434189e-14,45.1611869 C0.0427159929,45.6548022 0.348619817,46.0868914 0.8,46.2911869 L29.8,63.0111869 C31.0209713,63.63777 32.4690287,63.63777 33.69,63.0111869 L62.69,46.2911869 C63.1413802,46.0868914 63.447284,45.6548022 63.49,45.1611869 L63.49,43.0511869 C63.4458748,42.5605117 63.1398413,42.1320649 62.69,41.9311869 L62.69,41.9311869 Z" id="Path" fill="#FFC100"></path>
                    <path d="M63.49,43.0511869 L63.49,45.1611869 C63.447284,45.6548022 63.1413802,46.0868914 62.69,46.2911869 L33.69,63.0111869 C33.0955581,63.3348007 32.4266399,63.4968582 31.75,63.4811869 L31.75,24.7311869 C32.4251275,24.7183141 33.0925263,24.8765633 33.69,25.1911869 L62.69,41.9311869 C63.1398413,42.1320649 63.4458748,42.5605117 63.49,43.0511869 Z" id="Path" fill="#000000" opacity="0.1"></path>
                    <path d="M31.77,24.7311869 L31.77,63.4811869 C31.0901893,63.496748 30.4180729,63.3347507 29.82,63.0111869 L0.82,46.2911869 C0.368619817,46.0868914 0.0627159929,45.6548022 0.02,45.1611869 L0.02,43.0511869 C0.0641252439,42.5605117 0.37015867,42.1320649 0.82,41.9311869 L29.82,25.1911869 C30.4204526,24.8749143 31.0915022,24.7166155 31.77,24.7311869 Z" id="Path" fill="#000000" opacity="0.3"></path>
                    <path d="M29.82,60.9111869 L0.82,44.1811869 C0.340024415,44.0156866 0.0179110723,43.5638944 0.0179110723,43.0561869 C0.0179110723,42.5484794 0.340024415,42.0966872 0.82,41.9311869 L29.82,25.2011869 C31.0425432,24.5811434 32.4874568,24.5811434 33.71,25.2011869 L62.71,41.9311869 C63.1899756,42.0966872 63.5120889,42.5484794 63.5120889,43.0561869 C63.5120889,43.5638944 63.1899756,44.0156866 62.71,44.1811869 L33.71,60.9111869 C32.4866899,61.5280145 31.0433101,61.5280145 29.82,60.9111869 Z" id="Path" fill="#FFC100"></path>
                    <path d="M29.82,60.9111869 L0.82,44.1811869 C0.340024415,44.0156866 0.0179110723,43.5638944 0.0179110723,43.0561869 C0.0179110723,42.5484794 0.340024415,42.0966872 0.82,41.9311869 L29.82,25.2011869 C31.0425432,24.5811434 32.4874568,24.5811434 33.71,25.2011869 L62.71,41.9311869 C63.1899756,42.0966872 63.5120889,42.5484794 63.5120889,43.0561869 C63.5120889,43.5638944 63.1899756,44.0156866 62.71,44.1811869 L33.71,60.9111869 C32.4866899,61.5280145 31.0433101,61.5280145 29.82,60.9111869 Z" id="Path" fill="#FFFFFF" opacity="0.5"></path>
                    <path d="M31.77,24.7311869 C31.0906313,24.7196909 30.4195314,24.8814432 29.82,25.2011869 L0.82,41.9311869 C0.340024415,42.0966872 0.0179110723,42.5484794 0.0179110723,43.0561869 C0.0179110723,43.5638944 0.340024415,44.0156866 0.82,44.1811869 L29.82,60.9111869 C30.4204526,61.2274594 31.0915022,61.3857583 31.77,61.3711869 L31.77,24.7311869 Z" id="Path" fill="#000000" opacity="0.05"></path>
                    <path d="M49.66,40.9411869 L49.66,40.9411869 L36.84,2.4311869 L36.84,2.3711869 L36.84,2.3711869 C36.5737231,1.72172693 36.0794266,1.19186956 35.45,0.881186897 C33.1584914,-0.293728966 30.4415086,-0.293728966 28.15,0.881186897 C27.5232664,1.1986087 27.0278092,1.7259167 26.75,2.3711869 L26.75,2.3711869 L26.75,2.3711869 L26.75,2.3711869 L13.92,40.8911869 L13.92,40.8911869 C12.74,44.2411869 14.39,47.8911869 18.92,50.4611869 C26.06,54.5811869 37.62,54.5811869 44.75,50.4611869 C49.19,47.9111869 50.84,44.2911869 49.66,40.9411869 Z" id="Path" fill="#FFC100"></path>
                    <path d="M40.52,13.4711869 L40.52,13.4711869 L38.7,8.0011869 C38.9969336,8.99541559 38.6839231,10.0713892 37.9,10.7511869 C37.5637775,11.0944574 37.1798295,11.3874704 36.76,11.6211869 C33.6328798,13.2069515 29.9371202,13.2069515 26.81,11.6211869 C26.3920647,11.38459 26.0085009,11.0918702 25.67,10.7511869 C24.890196,10.0644545 24.5816566,8.98651946 24.88,7.9911869 L23.05,13.4811869 L23.05,13.4811869 C22.7530269,14.4105648 22.9005698,15.4249222 23.45,16.2311869 C23.9617797,16.9966611 24.6470278,17.6305155 25.45,18.0811869 C26.1502623,18.466328 26.8915783,18.7715758 27.66,18.9911869 C30.3302885,19.7513414 33.1597115,19.7513414 35.83,18.9911869 C36.6016105,18.7715629 37.3462384,18.4663325 38.05,18.0811869 C38.8538712,17.6317523 39.5393834,16.9976535 40.05,16.2311869 C40.6308464,15.4358095 40.8048529,14.4139841 40.52,13.4711869 L40.52,13.4711869 Z" id="Path" fill="#FAFAFA"></path>
                    <path d="M47.86,35.5511869 L47.86,35.5511869 L46.04,30.0711869 C46.3317981,30.963552 46.3664536,31.9200445 46.14,32.8311869 C45.868219,33.871678 45.3346159,34.8252785 44.59,35.6011869 C43.8482691,36.3912926 42.9920473,37.0654831 42.05,37.6011869 C36.38,40.8811869 27.18,40.8811869 21.51,37.6011869 C20.5650056,37.0654353 19.7054905,36.3913058 18.96,35.6011869 C18.2218514,34.8220814 17.6921758,33.8693531 17.42,32.8311869 C17.1877013,31.9240292 17.2224268,30.9690765 17.52,30.0811869 L15.69,35.5511869 L15.69,35.6011869 C15.3951692,36.4903033 15.3264336,37.4388533 15.49,38.3611869 C15.86,40.4411869 17.43,42.4711869 20.2,44.0711869 C26.6,47.7711869 36.98,47.7711869 43.38,44.0711869 C46.15,42.4711869 47.71,40.4411869 48.09,38.3611869 C48.2560364,37.4203165 48.1768229,36.452535 47.86,35.5511869 Z" id="Path" fill="#FAFAFA"></path>
                    <path d="M44.19,24.5511869 L44.19,24.5511869 L42.36,19.0711869 C42.6594773,19.9755561 42.5985844,20.9605888 42.19,21.8211869 C41.591887,22.9979089 40.6455919,23.9616633 39.48,24.5811869 L39.4,24.6411869 C34.6044795,27.0329898 28.9568803,26.9995721 24.19,24.5511869 L24.1,24.4911869 C22.9344081,23.8716633 21.988113,22.9079089 21.39,21.7311869 C20.9864335,20.8693013 20.9256609,19.8862157 21.22,18.9811869 L19.4,24.4611869 L19.4,24.4611869 C19.095208,25.3593673 19.095208,26.3330065 19.4,27.2311869 C19.8003871,28.3119345 20.4927217,29.2604328 21.4,29.9711869 C21.8575455,30.3451631 22.3459596,30.6796933 22.86,30.9711869 C24.3766562,31.8070648 26.0174564,32.3945118 27.72,32.7111869 C30.4185134,33.2311594 33.1914866,33.2311594 35.89,32.7111869 C37.5935011,32.3980636 39.2348582,31.8104173 40.75,30.9711869 C41.2687184,30.6821594 41.7606622,30.3475038 42.22,29.9711869 C43.1246481,29.2578946 43.8163937,28.3102032 44.22,27.2311869 C44.4902801,26.3566645 44.4797888,25.4194398 44.19,24.5511869 Z" id="Path" fill="#FAFAFA"></path>
                    <path d="M31.77,0.00118689668 C30.4982552,-0.0210116125 29.2419046,0.281889363 28.12,0.881186897 C27.4932664,1.1986087 26.9978092,1.7259167 26.72,2.3711869 L26.72,2.3711869 L26.72,2.3711869 L26.72,2.3711869 L13.89,40.8911869 L13.89,40.8911869 C12.71,44.2411869 14.36,47.8911869 18.89,50.4611869 C22.8628835,52.5756107 27.3103523,53.6392855 31.81,53.5511869 L31.7,53.5511869 C25.9085742,52.5503447 21.9696774,47.1166189 22.82,41.3011869 L28.16,2.9611869 L31.77,0.00118689668 Z" id="Path" fill="#000000" opacity="0.1"></path>
                    <path d="M28.12,5.0911869 C26.12,3.9311869 26.12,2.0411869 28.12,0.881186897 C30.4115086,-0.293728966 33.1284914,-0.293728966 35.42,0.881186897 C37.42,2.0411869 37.42,3.9311869 35.42,5.0911869 C33.1284914,6.26610276 30.4115086,6.26610276 28.12,5.0911869 Z" id="Path" fill="#FFC100"></path>
                    <path d="M28.12,5.0911869 C26.12,3.9311869 26.12,2.0411869 28.12,0.881186897 C30.4115086,-0.293728966 33.1284914,-0.293728966 35.42,0.881186897 C37.42,2.0411869 37.42,3.9311869 35.42,5.0911869 C33.1284914,6.26610276 30.4115086,6.26610276 28.12,5.0911869 Z" id="Path" fill="#FFFFFF" opacity="0.5"></path>
                </g>
            </g>
        </g>
    </g>
</svg>