<?xml version="1.0" encoding="UTF-8"?>
<svg width="319px" height="344px" viewBox="0 0 319 344" version="1.1" xmlns="http://www.w3.org/2000/svg" xmlns:xlink="http://www.w3.org/1999/xlink">
    <g id="Page-1" stroke="none" stroke-width="1" fill="none" fill-rule="evenodd">
        <g id="Artboard" transform="translate(-98.000000, -71.000000)" fill-rule="nonzero">
            <g id="illustration-chat" transform="translate(98.720000, 71.899498)">
                <g id="freepik--Floor--inject-47" transform="translate(27.625000, 198.233559)" fill="#F5F5F5">
                    <path d="M40.365,122.90625 C94.185,151.02625 181.455,151.02625 235.275,122.90625 C289.095,94.7862502 289.095,49.2062502 235.275,21.0862502 C181.455,-7.03374983 94.185,-7.02374983 40.365,21.0862502 C-13.455,49.1962502 -13.455,94.7462502 40.365,122.90625 Z" id="Path"></path>
                </g>
                <g id="freepik--Characters--inject-47" transform="translate(60.514409, 0.000000)">
                    <path d="M43.5755909,206.78981 C43.3255909,206.44981 43.4655909,183.67981 35.7455909,176.90981 C28.0255909,170.13981 21.2155909,175.50981 25.6855909,183.61981 C28.6855909,188.96981 36.9755909,198.43981 36.9855909,207.50981 L43.5755909,206.78981 Z" id="Path" fill="#00A5F5"></path>
                    <path d="M43.5755909,206.78981 C43.3255909,206.44981 43.4655909,183.67981 35.7455909,176.90981 C28.0255909,170.13981 21.2155909,175.50981 25.6855909,183.61981 C28.6855909,188.96981 36.9755909,198.43981 36.9855909,207.50981 L43.5755909,206.78981 Z" id="Path" fill="#FFFFFF" opacity="0.6"></path>
                    <path d="M40.8655909,207.319814 C40.6538977,207.320819 40.4762417,207.160496 40.4555909,206.94981 C38.1355909,185.11981 29.3955909,177.29981 29.3055909,177.21981 C29.1948385,177.123348 29.1439609,176.975128 29.172123,176.830983 C29.2002851,176.686838 29.3032085,176.568666 29.442123,176.520983 C29.5810375,176.473299 29.7348386,176.503348 29.8455909,176.59981 C30.2155909,176.91981 38.9255909,184.66981 41.2755909,206.85981 C41.2989876,207.088579 41.1340584,207.293626 40.9055909,207.319814 L40.8655909,207.319814 Z" id="Path" fill="#FFFFFF"></path>
                    <path d="M42.0855909,230.88981 C39.2555909,218.03981 35.2155909,210.57981 19.2255909,202.34981 C4.49559089,194.75981 -8.17440911,186.73981 6.55559089,183.82981 C18.7855909,181.40981 42.3255909,200.82981 43.1655909,217.82981 L42.0855909,230.88981 Z" id="Path" fill="#00A5F5"></path>
                    <path d="M40.5155909,214.739896 C40.3439834,214.743322 40.1883513,214.639568 40.1255909,214.47981 C35.2955909,201.59981 19.8655909,189.13981 6.49559089,187.26981 C6.27084774,187.233856 6.1156378,187.025431 6.14559089,186.79981 C6.16038739,186.690546 6.2185692,186.591847 6.30700328,186.525992 C6.39543736,186.460137 6.50666914,186.432677 6.61559089,186.44981 C20.2755909,188.35981 35.9755909,201.05981 40.9055909,214.18981 C40.9796283,214.405032 40.8687641,214.640064 40.6555909,214.71981 L40.5155909,214.739896 Z" id="Path" fill="#FFFFFF"></path>
                    <path d="M159.795591,250.37981 C159.375591,250.93981 159.305591,252.22981 158.875591,253.97981 C158.440863,255.266892 158.34106,256.643481 158.585591,257.97981 C159.590838,259.65757 161.184105,260.90153 163.055591,261.46981 C165.355591,262.18981 168.185591,261.58981 170.925591,259.94981 C173.665591,258.30981 175.735591,256.31981 179.645591,255.20981 C183.555591,254.09981 185.495591,253.20981 187.345591,251.70981 C189.515591,249.96981 192.405591,245.16981 188.265591,244.05981 C184.125591,242.94981 175.115591,246.86981 166.925591,247.22981 L159.795591,250.37981 Z" id="Path" fill="#263238"></path>
                    <path d="M159.795591,245.25981 L159.795591,251.39981 C160.301182,252.811233 161.565762,253.812036 163.055591,253.97981 C163.729102,254.087751 164.419189,254.015291 165.055591,253.76981 C167.087176,252.988979 168.467216,251.083583 168.575591,248.90981 L168.815591,245.25981 L159.795591,245.25981 Z" id="Path" fill="#FFA8A7"></path>
                    <path d="M171.515591,207.33981 C171.565591,214.96981 169.375591,247.94981 169.375591,247.94981 C169.375591,247.94981 166.255591,251.89981 159.475591,247.94981 L157.165591,211.13981 L171.515591,207.33981 Z" id="Path" fill="#00A5F5"></path>
                    <path d="M171.515591,207.33981 C171.565591,214.96981 169.375591,247.94981 169.375591,247.94981 C169.375591,247.94981 166.255591,251.89981 159.475591,247.94981 L157.165591,211.13981 L171.515591,207.33981 Z" id="Path" fill="#000000" opacity="0.5"></path>
                    <path d="M151.715591,276.55981 C152.575591,270.18981 159.185591,258.20981 170.535591,253.14981 C181.885591,248.08981 195.615591,249.51981 198.225591,251.71981 C200.835591,253.91981 201.515591,258.51981 196.055591,259.99981 C190.595591,261.47981 186.305591,263.99981 189.685591,266.84981 C193.065591,269.69981 194.115591,273.62981 188.585591,274.69981 C183.055591,275.76981 176.525591,271.82981 174.985591,275.34981 C173.445591,278.86981 176.695591,281.56981 170.535591,282.83981 C164.375591,284.10981 156.805591,279.34981 152.535591,286.36981 L151.715591,276.55981 Z" id="Path" fill="#00A5F5"></path>
                    <path d="M152.085591,281.37981 C152.032686,281.389367 151.978496,281.389367 151.925591,281.37981 C151.824395,281.337872 151.744188,281.257184 151.702858,281.155738 C151.661528,281.054292 151.662512,280.940526 151.705591,280.83981 C160.125591,260.83981 184.465591,251.83981 192.955591,252.37981 C193.183693,252.395856 193.357043,252.591431 193.345591,252.81981 C193.340494,252.93044 193.290859,253.034303 193.207981,253.107763 C193.125104,253.181223 193.016033,253.21803 192.905591,253.20981 C186.165591,252.79981 161.235591,260.38981 152.465591,281.15981 C152.392177,281.300506 152.24416,281.386199 152.085591,281.37981 Z" id="Path" fill="#FFFFFF"></path>
                    <path d="M185.415591,269.13981 C185.359323,269.149321 185.301858,269.149321 185.245591,269.13981 C185.135591,269.07981 173.705591,264.01981 163.145591,266.38981 C163.039306,266.416568 162.926698,266.398543 162.834076,266.339946 C162.741455,266.281348 162.676934,266.187312 162.655591,266.07981 C162.605885,265.858896 162.744677,265.639515 162.965591,265.58981 C173.795591,263.15981 185.475591,268.32981 185.585591,268.37981 C185.770724,268.454322 185.875316,268.651312 185.833332,268.846412 C185.791349,269.041512 185.614987,269.178044 185.415591,269.16981 L185.415591,269.13981 Z" id="Path" fill="#FFFFFF"></path>
                    <polygon id="Path" fill="#00A5F5" points="91.5155909 176.52981 55.7455909 197.17981 140.705591 246.22981 167.535591 230.73981 176.475591 225.57981"></polygon>
                    <polygon id="Path" fill="#00A5F5" points="176.475591 225.57981 176.475591 230.74981 149.645591 246.23981 149.635591 241.06981"></polygon>
                    <polygon id="Path" fill="#000000" opacity="0.2" points="176.475591 225.57981 176.475591 230.74981 149.645591 246.23981 149.635591 241.06981"></polygon>
                    <path d="M95.3455909,202.34981 C95.3455909,202.34981 126.675591,192.88981 132.115591,191.39981 C137.555591,189.90981 148.015591,187.39981 151.065591,188.76981 C154.115591,190.13981 155.665591,191.71981 155.945591,196.12981 C156.005591,196.95981 155.945591,200.98981 155.945591,200.98981 C155.945591,200.98981 140.805591,205.66981 128.405591,205.66981 C116.005591,205.66981 95.3455909,202.34981 95.3455909,202.34981 Z" id="Path" fill="#00A5F5"></path>
                    <path d="M95.3455909,202.34981 C95.3455909,202.34981 126.675591,192.88981 132.115591,191.39981 C137.555591,189.90981 148.015591,187.39981 151.065591,188.76981 C154.115591,190.13981 155.665591,191.71981 155.945591,196.12981 C156.005591,196.95981 155.945591,200.98981 155.945591,200.98981 C155.945591,200.98981 140.805591,205.66981 128.405591,205.66981 C116.005591,205.66981 95.3455909,202.34981 95.3455909,202.34981 Z" id="Path" fill="#000000" opacity="0.6"></path>
                    <polygon id="Path" fill="#FFA8A7" points="122.125591 149.10981 120.045591 160.33981 108.525591 161.66981 110.185591 146.16981"></polygon>
                    <path d="M132.865591,140.13981 C132.865591,140.13981 134.375591,144.76981 133.915591,145.05981 C133.087743,145.235449 132.2378,145.282668 131.395591,145.19981 L132.865591,140.13981 Z" id="Path" fill="#F28F8F"></path>
                    <path d="M129.865591,125.28981 C131.865591,127.37981 133.735591,130.86981 132.865591,139.71981 C131.955591,149.41981 129.055591,152.00981 127.865591,152.56981 C126.035591,153.41981 119.865591,151.93981 117.805591,150.44981 C115.285591,148.58981 110.525591,143.94981 109.285591,138.23981 C107.825591,131.51981 109.695591,123.87981 114.605591,122.32981 C121.565591,120.13981 128.225591,123.51981 129.865591,125.28981 Z" id="Path" fill="#FFA8A7"></path>
                    <path d="M134.435591,130.05981 C133.255591,132.27981 131.035591,137.80981 124.725591,139.36981 C124.725591,139.36981 124.375591,135.60981 121.255591,135.56981 C118.135591,135.52981 117.075591,139.37981 118.625591,142.05981 C120.175591,144.73981 122.125591,144.12981 122.125591,144.12981 C122.125591,144.12981 121.805591,149.41981 117.995591,151.30981 C117.995591,151.30981 113.405591,153.39981 109.225591,150.72981 C107.345591,149.52981 105.165591,144.31981 104.045591,140.13981 C101.665591,131.29981 102.095591,124.52981 107.715591,123.13981 C108.895591,119.42981 110.805591,118.23981 114.335591,118.00981 C121.955591,117.49981 126.875591,123.13981 133.205591,123.13981 C136.505591,123.13981 135.775591,127.52981 134.435591,130.05981 Z" id="Path" fill="#263238"></path>
                    <path d="M107.865591,123.77981 L104.045591,122.13981 C104.336762,121.459219 104.968907,120.985665 105.703902,120.897531 C106.438896,120.809398 107.165078,121.120074 107.608902,121.712531 C108.052725,122.304989 108.146762,123.089219 107.855591,123.76981 L107.865591,123.77981 Z" id="Path" fill="#263238"></path>
                    <path d="M95.4255909,198.57981 C95.4255909,204.57981 94.8555909,210.85981 97.3655909,215.26981 C99.8755909,219.67981 111.245591,228.75981 124.045591,226.59981 C132.405591,225.18981 159.435591,214.88981 159.435591,214.88981 C159.435591,214.88981 171.435591,210.47981 171.515591,207.33981 C171.595591,202.69981 171.275591,196.17981 160.785591,196.45981 C151.225591,196.70981 122.855591,201.35981 122.855591,201.35981 L95.4255909,198.57981 Z" id="Path" fill="#00A5F5"></path>
                    <path d="M95.4255909,198.57981 C95.4255909,204.57981 94.8555909,210.85981 97.3655909,215.26981 C99.8755909,219.67981 111.245591,228.75981 124.045591,226.59981 C132.405591,225.18981 159.435591,214.88981 159.435591,214.88981 C159.435591,214.88981 171.435591,210.47981 171.515591,207.33981 C171.595591,202.69981 171.275591,196.17981 160.785591,196.45981 C151.225591,196.70981 122.855591,201.35981 122.855591,201.35981 L95.4255909,198.57981 Z" id="Path" fill="#000000" opacity="0.5"></path>
                    <path d="M97.6555909,159.67981 C98.6555909,156.53981 102.655591,153.11981 106.655591,153.85981 C113.985591,155.21981 122.005591,157.59981 124.125591,158.21981 L124.125591,158.21981 C124.125591,158.21981 123.125591,174.37981 131.455591,179.21981 L132.545591,199.78981 C132.545591,199.78981 130.495591,203.87981 127.335591,205.89981 C123.905591,208.06981 119.145591,211.33981 110.535591,210.61981 C104.510384,210.144806 98.9754903,207.117172 95.3255909,202.29981 C95.3255909,202.29981 95.4255909,182.85981 95.7555909,174.15981 C96.0555909,166.81981 96.9455909,161.83981 97.6555909,159.67981 Z" id="Path" fill="#00A5F5"></path>
                    <path d="M97.6555909,159.67981 C98.6555909,156.53981 102.655591,153.11981 106.655591,153.85981 C113.985591,155.21981 122.005591,157.59981 124.125591,158.21981 L124.125591,158.21981 C124.125591,158.21981 123.125591,174.37981 131.455591,179.21981 L132.545591,199.78981 C132.545591,199.78981 130.495591,203.87981 127.335591,205.89981 C123.905591,208.06981 119.145591,211.33981 110.535591,210.61981 C104.510384,210.144806 98.9754903,207.117172 95.3255909,202.29981 C95.3255909,202.29981 95.4255909,182.85981 95.7555909,174.15981 C96.0555909,166.81981 96.9455909,161.83981 97.6555909,159.67981 Z" id="Path" fill="#000000" opacity="0.2"></path>
                    <path d="M131.685591,183.24981 C131.685591,183.24981 127.355591,178.75981 125.835591,173.54981 C125.835591,173.54981 125.835591,181.16981 131.775591,185.28981 L131.685591,183.24981 Z" id="Path" fill="#00A5F5"></path>
                    <path d="M131.685591,183.24981 C131.685591,183.24981 127.355591,178.75981 125.835591,173.54981 C125.835591,173.54981 125.835591,181.16981 131.775591,185.28981 L131.685591,183.24981 Z" id="Path" fill="#000000" opacity="0.4"></path>
                    <path d="M160.155591,168.48981 L164.805591,161.80981 C164.805591,161.80981 165.915591,160.19981 166.325591,159.52981 C166.735591,158.85981 167.015591,156.61981 165.645591,156.04981 C163.165591,155.04981 158.005591,152.57981 156.495591,152.56981 C155.875591,152.56981 153.285591,156.90981 148.845591,162.75981 C146.185591,166.25981 142.515591,171.11981 142.515591,171.54981 C142.515591,171.97981 141.565591,172.41981 145.425591,174.38981 C148.192681,175.748126 151.057307,176.897987 153.995591,177.82981 L160.155591,168.48981 Z" id="Path" fill="#00A5F5"></path>
                    <path d="M160.155591,168.48981 L164.805591,161.80981 C164.805591,161.80981 165.915591,160.19981 166.325591,159.52981 C166.735591,158.85981 167.015591,156.61981 165.645591,156.04981 C163.165591,155.04981 158.005591,152.57981 156.495591,152.56981 C155.875591,152.56981 153.285591,156.90981 148.845591,162.75981 C146.185591,166.25981 142.515591,171.11981 142.515591,171.54981 C142.515591,171.97981 141.565591,172.41981 145.425591,174.38981 C148.192681,175.748126 151.057307,176.897987 153.995591,177.82981 L160.155591,168.48981 Z" id="Path" fill="#000000" opacity="0.6"></path>
                    <path d="M163.115591,161.23981 C160.265591,165.33981 154.185591,175.47981 154.005591,175.75981 C153.825591,176.03981 145.005591,172.22981 142.635591,171.19981 C142.576962,171.309235 142.536438,171.427431 142.515591,171.54981 C142.515591,171.96981 141.565591,172.41981 145.425591,174.38981 C148.192681,175.748126 151.057307,176.897987 153.995591,177.82981 L160.155591,168.48981 L164.805591,161.80981 C164.805591,161.80981 165.915591,160.19981 166.325591,159.52981 C166.735591,158.85981 167.015591,156.61981 165.645591,156.04981 C165.915591,156.18981 165.955591,157.13981 163.115591,161.23981 Z" id="Path" fill="#263238"></path>
                    <polygon id="Path" fill="#00A5F5" points="155.595591 154.69981 164.395591 158.26981 154.575591 173.27981 145.805591 169.51981"></polygon>
                    <polygon id="Path" fill="#FFFFFF" opacity="0.8" points="155.595591 154.69981 164.395591 158.26981 154.575591 173.27981 145.805591 169.51981"></polygon>
                    <path d="M124.145591,158.21981 C128.665591,159.57981 131.425591,159.82981 136.425591,167.51981 C141.425591,175.20981 152.375591,190.45981 153.425591,192.29981 C154.935591,194.84981 155.585591,197.87981 154.285591,200.22981 C153.065591,202.40981 149.525591,201.45981 144.565591,197.09981 C139.765591,192.88981 130.265591,180.98981 130.265591,180.98981 C127.136148,173.735371 125.074718,166.065638 124.145591,158.21981 Z" id="Path" fill="#FFA8A7"></path>
                    <path d="M153.215591,201.35981 C155.505591,200.69981 158.955591,192.18981 161.595591,182.53981 C164.235591,172.88981 165.595591,170.73981 165.595591,167.69981 C165.595591,164.65981 165.455591,160.77981 165.455591,160.77981 L160.935591,167.28981 C160.754028,166.013444 160.369151,164.77441 159.795591,163.61981 C159.215591,162.42981 158.125591,161.49981 157.235591,162.20981 C156.755591,162.58981 158.015591,164.20981 157.745591,167.87981 C157.665721,169.342018 157.756331,170.808554 158.015591,172.24981 L149.595591,192.62981 L153.215591,201.35981 Z" id="Path" fill="#FFA8A7"></path>
                    <path d="M124.145591,158.21981 C126.388848,158.695779 128.579516,159.392505 130.685591,160.29981 C132.718459,161.099598 134.447177,162.520366 135.625591,164.35981 C139.125591,170.16981 144.125591,178.43981 144.125591,178.43981 C144.125591,178.43981 144.985591,185.63981 136.235591,188.15981 L131.575591,183.15981 C129.671508,181.123549 128.108121,178.793663 126.945591,176.25981 C124.975591,171.89981 122.725591,165.01981 124.145591,158.21981 Z" id="Path" fill="#00A5F5"></path>
                    <path d="M124.145591,158.21981 C126.388848,158.695779 128.579516,159.392505 130.685591,160.29981 C132.718459,161.099598 134.447177,162.520366 135.625591,164.35981 C139.125591,170.16981 144.125591,178.43981 144.125591,178.43981 C144.125591,178.43981 144.985591,185.63981 136.235591,188.15981 L131.575591,183.15981 C129.671508,181.123549 128.108121,178.793663 126.945591,176.25981 C124.975591,171.89981 122.725591,165.01981 124.145591,158.21981 Z" id="Path" fill="#000000" opacity="0.2"></path>
                    <path d="M135.935591,62.7698096 L42.6255909,8.89980964 C40.2755909,7.53980964 38.3255909,8.37980964 37.9355909,10.7498096 C38.3757863,7.73915778 40.0826727,5.06054711 42.6255909,3.38980964 L46.5055909,1.13980964 C49.5004925,-0.379936547 53.0406893,-0.379936547 56.0355909,1.13980964 L149.355591,55.0098096 C150.759877,55.8948652 151.91881,57.1191385 152.725591,58.5698096 L139.305591,66.3198096 C138.50603,64.8665099 137.345358,63.6438438 135.935591,62.7698096 Z" id="Path" fill="#37474F"></path>
                    <path d="M154.115591,284.61981 C153.93534,287.974064 152.162619,291.040092 149.345591,292.86981 L145.465591,295.13981 C142.746039,296.503912 139.573498,296.642165 136.745591,295.51981 C138.995591,296.36981 140.745591,295.09981 140.745591,292.37981 L140.745591,71.0198096 C140.685734,69.3627958 140.203853,67.7484936 139.345591,66.3298096 L152.765591,58.5798096 C153.619939,60.0032774 154.098261,61.620628 154.155591,63.2798096 L154.115591,284.61981 Z" id="Path" fill="#263238"></path>
                    <path d="M135.935591,62.7698096 L42.6255909,8.89980964 C39.9955909,7.37980964 37.8655909,8.60980964 37.8655909,11.6498096 L37.8655909,232.98981 C38.0483684,236.340784 39.8159979,239.404428 42.6255909,241.23981 L135.935591,295.13981 C138.575591,296.64981 140.695591,295.41981 140.695591,292.37981 L140.695591,71.0198096 C140.517598,67.6674147 138.748808,64.6017597 135.935591,62.7698096 Z M136.225591,260.99981 C136.225591,262.82981 134.955591,263.56981 133.365591,262.64981 L45.1955909,211.73981 C43.4877234,210.634307 42.4188234,208.772112 42.3255909,206.73981 L42.3255909,43.0098096 C42.3255909,41.1798096 43.6055909,40.4398096 45.1955909,41.3598096 L48.7055909,43.3598096 L133.365591,92.2498096 C135.070889,93.3563896 136.136247,95.2189042 136.225591,97.2498096 L136.225591,260.99981 Z" id="Shape" fill="#455A64"></path>
                    <path d="M89.2755909,44.2298096 C90.268823,44.870579 90.8938166,45.9494371 90.9555909,47.1298096 C90.9555909,48.1998096 90.2055909,48.6398096 89.2755909,48.1298096 C88.2886006,47.4844979 87.6683219,46.4073672 87.6055909,45.2298096 C87.6055909,44.1398096 88.3555909,43.6898096 89.2755909,44.2298096 Z" id="Path" fill="#263238"></path>
                    <path d="M89.2755909,245.05981 C93.1716292,247.617294 95.6183868,251.875915 95.8655909,256.52981 C95.8655909,260.74981 92.8655909,262.46981 89.2455909,260.34981 C85.3396683,257.802176 82.8811181,253.546136 82.6255909,248.88981 C82.6555909,244.65981 85.6255909,242.94981 89.2755909,245.05981 Z" id="Path" fill="#263238"></path>
                    <path d="M105.115591,61.2698096 C107.094782,62.5582674 108.342422,64.7119324 108.475591,67.0698096 C108.475591,69.2098096 106.965591,70.0698096 105.115591,69.0098096 C103.137465,67.7170778 101.893382,65.5594298 101.765591,63.1998096 C101.765591,61.0598096 103.265591,60.1998096 105.115591,61.2698096 Z" id="Path" fill="#263238"></path>
                    <path d="M96.9155909,60.5398096 C96.9155909,61.9698096 95.8555909,62.5398096 94.5355909,61.7498096 L72.4755909,49.0098096 C71.0819993,48.1384297 70.192612,46.6499154 70.0855909,45.0098096 C70.0855909,43.5798096 71.1555909,43.0098096 72.4755909,43.7998096 L94.5355909,56.5398096 C95.9277929,57.4110881 96.8140465,58.9005899 96.9155909,60.5398096 Z" id="Path" fill="#263238"></path>
                    <path d="M55.7455909,47.4498096 L45.1855909,41.3598096 C43.6055909,40.4398096 42.3255909,41.1798096 42.3255909,43.0098096 L42.3255909,206.78981 C42.419841,208.819292 43.4840074,210.679722 45.1855909,211.78981 L55.7455909,217.88981 L55.7455909,47.4498096 Z" id="Path" fill="#263238"></path>
                    <g id="Group" opacity="0.15" transform="translate(48.705591, 43.379810)" fill="#FFFFFF">
                        <path d="M87.52,53.84 L87.52,200.27 L-2.84217094e-14,149.76 L-2.84217094e-14,0 L84.66,48.89 C86.3513996,49.9864309 87.4148722,51.8270565 87.52,53.84 Z" id="Path"></path>
                    </g>
                    <path d="M49.2555909,44.3398096 L133.095591,92.7498096 C134.606511,93.7550957 135.560907,95.4086423 135.675591,97.2198096 L135.675591,242.69981 L49.2555909,192.80981 L49.2555909,44.3398096 M48.7055909,43.3398096 L48.7055909,193.13981 L136.225591,243.65981 L136.225591,97.2198096 C136.136247,95.1889042 135.070889,93.3263896 133.365591,92.2198096 L48.7055909,43.3298096 L48.7055909,43.3398096 Z" id="Shape" fill="#FFFFFF"></path>
                    <path d="M136.235591,260.99981 L136.235591,248.81981 L55.7455909,202.34981 L43.1655909,209.59981 C43.6381888,210.472506 44.3268148,211.209336 45.1655909,211.73981 L133.355591,262.64981 C134.945591,263.56981 136.235591,262.82981 136.235591,260.99981 Z" id="Path" fill="#37474F"></path>
                    <polygon id="Path" fill="#00A5F5" points="136.235591 253.97981 109.405591 269.46981 109.405591 264.30981 136.235591 248.81981"></polygon>
                    <polygon id="Path" fill="#000000" opacity="0.2" points="136.235591 253.97981 109.405591 269.46981 109.405591 264.30981 136.235591 248.81981"></polygon>
                    <polygon id="Path" fill="#00A5F5" points="24.4455909 215.25981 109.405591 264.30981 109.405591 269.46981 24.4455909 220.41981"></polygon>
                    <polygon id="Path" fill="#000000" opacity="0.2" points="24.4455909 215.25981 109.405591 264.30981 109.405591 269.46981 24.4455909 220.41981"></polygon>
                    <polygon id="Path" fill="#00A5F5" points="55.7455909 197.17981 24.4455909 215.25981 109.405591 264.30981 136.235591 248.81981 136.235591 243.64981"></polygon>
                    <polygon id="Path" fill="#00A5F5" points="55.7455909 197.17981 24.4455909 215.25981 109.405591 264.30981 136.235591 248.81981 136.235591 243.64981"></polygon>
                    <path d="M56.5255909,156.33981 C53.8655909,156.33981 51.8355909,156.49981 46.9255909,163.61981 C42.7655909,169.61981 29.1555909,188.43981 28.3455909,189.32981 C27.5355909,190.21981 34.4855909,193.38981 34.4855909,193.38981 L52.8655909,174.91981 L56.5255909,156.33981 Z" id="Path" fill="#FFA8A7"></path>
                    <path d="M31.1055909,187.80981 C31.1055909,187.80981 32.5655909,187.02981 36.2555909,187.05981 C38.5455909,187.05981 39.9755909,187.21981 40.2555909,186.47981 C40.6255909,185.36981 41.5255909,183.32981 41.9955909,183.339773 L41.9955909,188.76981 L31.1055909,187.80981 Z" id="Path" fill="#F28F8F"></path>
                    <path d="M24.6455909,269.20981 C18.4955909,277.32981 13.6955909,279.20981 12.0155909,280.96981 C10.3355909,282.72981 11.3055909,286.19981 15.4155909,286.96981 C19.5255909,287.73981 23.9755909,286.79981 26.6255909,284.14981 C29.2755909,281.49981 31.1055909,278.04981 33.8055909,276.14981 C36.5055909,274.24981 37.8955909,273.70981 38.3055909,271.42981 C38.7155909,269.14981 36.6555909,262.36981 36.6555909,262.36981 L24.6455909,269.20981 Z" id="Path" fill="#263238"></path>
                    <path d="M27.5955909,256.82981 C28.1655909,259.77981 28.8055909,262.35981 26.7955909,265.90981 C26.1430825,267.050302 25.4252194,268.152138 24.6455909,269.20981 C21.0555909,274.03981 18.1355909,277.80981 17.6455909,278.46981 C17.1555909,279.12981 20.1755909,281.22981 23.6455909,279.78981 C27.1155909,278.34981 30.1055909,273.20981 32.3655909,270.10981 C33.3655909,268.72981 34.3655909,267.47981 35.1455909,266.50981 C36.2021665,265.219178 36.7499412,263.586525 36.6855909,261.91981 L36.4955909,257.20981 L27.5955909,256.82981 Z" id="Path" fill="#FFA8A7"></path>
                    <path d="M39.6155909,280.74981 C33.4655909,288.87981 28.6655909,290.74981 26.9855909,292.51981 C25.3055909,294.28981 26.2855909,297.73981 30.3855909,298.51981 C34.4855909,299.29981 38.9455909,298.33981 41.5955909,295.69981 C44.2455909,293.05981 46.0755909,289.58981 48.7855909,287.69981 C51.4955909,285.80981 52.8755909,285.24981 53.2755909,282.96981 C53.6755909,280.68981 51.6355909,273.90981 51.6355909,273.90981 L39.6155909,280.74981 Z" id="Path" fill="#263238"></path>
                    <path d="M42.5655909,268.36981 C43.1455909,271.31981 43.7755909,273.89981 41.7655909,277.44981 C41.1177546,278.59315 40.3997128,279.695261 39.6155909,280.74981 C36.0255909,285.57981 33.1055909,289.34981 32.6155909,290.00981 C32.1255909,290.66981 35.1455909,292.77981 38.6155909,291.33981 C42.0855909,289.89981 45.0755909,284.75981 47.3355909,281.65981 C48.3355909,280.27981 49.3355909,279.01981 50.1155909,278.05981 C51.171203,276.764752 51.7186929,275.129393 51.6555909,273.45981 L51.4755909,268.74981 L42.5655909,268.36981 Z" id="Path" fill="#FFA8A7"></path>
                    <path d="M82.6655909,196.13981 C87.3755909,205.81981 85.5155909,215.40981 72.7855909,221.68981 C65.6755909,225.19981 51.9155909,231.39981 51.9155909,231.39981 C51.9155909,231.39981 53.9155909,236.89981 53.9855909,246.16981 C54.0555909,254.32981 51.8855909,272.07981 51.8855909,272.07981 C51.8855909,272.07981 46.5655909,274.54981 42.7555909,272.07981 C42.7555909,272.07981 41.0655909,261.07981 39.7555909,249.98981 C38.1655909,236.05981 36.8255909,227.86981 37.5355909,224.86981 C38.1655909,222.21981 43.7055909,218.33981 47.9355909,215.36981 L33.1755909,222.30981 C33.1755909,222.30981 36.3455909,226.68981 37.0955909,234.57981 C38.0055909,244.11981 36.8555909,260.51981 36.8555909,260.51981 C34.0021082,261.914746 30.6952261,262.052533 27.7355909,260.89981 C27.7355909,260.89981 17.3455909,220.44981 18.9055909,214.83981 C21.1455909,206.78981 51.8055909,194.52981 53.3655909,191.36981 L82.6655909,196.13981 Z" id="Path" fill="#00A5F5"></path>
                    <path d="M82.6655909,196.13981 C87.3755909,205.81981 85.5155909,215.40981 72.7855909,221.68981 C65.6755909,225.19981 51.9155909,231.39981 51.9155909,231.39981 C51.9155909,231.39981 53.9155909,236.89981 53.9855909,246.16981 C54.0555909,254.32981 51.8855909,272.07981 51.8855909,272.07981 C51.8855909,272.07981 46.5655909,274.54981 42.7555909,272.07981 C42.7555909,272.07981 41.0655909,261.07981 39.7555909,249.98981 C38.1655909,236.05981 36.8255909,227.86981 37.5355909,224.86981 C38.1655909,222.21981 43.7055909,218.33981 47.9355909,215.36981 L33.1755909,222.30981 C33.1755909,222.30981 36.3455909,226.68981 37.0955909,234.57981 C38.0055909,244.11981 36.8555909,260.51981 36.8555909,260.51981 C34.0021082,261.914746 30.6952261,262.052533 27.7355909,260.89981 C27.7355909,260.89981 17.3455909,220.44981 18.9055909,214.83981 C21.1455909,206.78981 51.8055909,194.52981 53.3655909,191.36981 L82.6655909,196.13981 Z" id="Path" fill="#000000" opacity="0.2"></path>
                    <path d="M72.2055909,156.35981 C81.8055909,157.25981 83.3355909,155.71981 86.2055909,163.49981 L77.4055909,185.92981 L82.6655909,196.13981 C81.4255909,197.98981 66.7655909,205.86981 53.8855909,196.46981 C51.6250616,188.24265 49.8222965,179.896515 48.4855909,171.46981 C47.4855909,164.37981 53.7655909,156.55981 56.8755909,156.24981 C57.9972308,156.116486 59.1260753,156.05303 60.2555909,156.05981 L72.2055909,156.35981 Z" id="Path" fill="#00A5F5"></path>
                    <path d="M72.2055909,156.35981 C81.8055909,157.25981 83.3355909,155.71981 86.2055909,163.49981 L77.4055909,185.92981 L82.6655909,196.13981 C81.4255909,197.98981 66.7655909,205.86981 53.8855909,196.46981 C51.6250616,188.24265 49.8222965,179.896515 48.4855909,171.46981 C47.4855909,164.37981 53.7655909,156.55981 56.8755909,156.24981 C57.9972308,156.116486 59.1260753,156.05303 60.2555909,156.05981 L72.2055909,156.35981 Z" id="Path" fill="#FFFFFF" opacity="0.6"></path>
                    <path d="M38.7355909,187.78981 C40.7355909,187.84981 40.6555909,186.56981 41.1555909,185.31981 C41.7455909,183.84981 42.2855909,182.53981 42.2855909,182.53981 L43.6055909,187.29981 L45.4155909,196.11981 C45.4155909,196.11981 40.1055909,196.04981 36.2055909,196.11981 C32.3055909,196.18981 27.8755909,194.88981 27.4255909,192.11981 C27.1455909,190.39981 28.4255909,187.98981 32.4255909,187.60981 C34.5304316,187.508272 36.6399613,187.568448 38.7355909,187.78981 Z" id="Path" fill="#FFA8A7"></path>
                    <path d="M42.4955909,176.52981 C40.4955909,177.22981 41.0155909,180.57981 41.8555909,184.32981 C42.6955909,188.07981 44.0855909,194.37981 44.5155909,196.03981 C44.9455909,197.69981 45.5155909,198.72981 47.9955909,198.72981 C50.4755909,198.72981 54.5155909,198.99981 56.2655909,198.72981 C58.0155909,198.45981 58.2655909,196.90981 57.9055909,193.37981 C57.4838485,189.350383 56.8563628,185.345155 56.0255909,181.37981 C55.3255909,178.02981 54.8955909,176.24981 52.8155909,176.24981 C50.3955909,176.21981 44.5955909,175.79981 42.4955909,176.52981 Z" id="Path" fill="#263238"></path>
                    <path d="M42.3655909,186.65981 C42.5655909,187.53981 44.3655909,188.26981 46.0055909,188.33981 C48.3792745,188.432775 50.7560974,188.271862 53.0955909,187.85981 C54.7655909,187.40981 55.8255909,190.28981 54.2155909,192.91981 C52.6055909,195.54981 48.9655909,196.34981 44.5255909,196.10981 C43.192494,194.797274 42.3101705,193.09565 42.0055909,191.24981 C41.8714637,189.710427 41.9931083,188.159458 42.3655909,186.65981 L42.3655909,186.65981 Z" id="Path" fill="#FFA8A7"></path>
                    <path d="M77.4455909,185.92981 C77.4455909,185.92981 76.4455909,187.58981 73.3355909,187.58981 C76.0855909,185.71981 78.4755909,182.01981 80.7155909,177.58981 L77.4455909,185.92981 Z" id="Path" fill="#00A5F5"></path>
                    <path d="M77.4455909,185.92981 C77.4455909,185.92981 76.4455909,187.58981 73.3355909,187.58981 C76.0855909,185.71981 78.4755909,182.01981 80.7155909,177.58981 L77.4455909,185.92981 Z" id="Path" fill="#FFFFFF" opacity="0.1"></path>
                    <path d="M81.7955909,157.36981 C87.0955909,158.36981 89.3055909,163.36981 89.4655909,173.16981 C89.6255909,182.96981 88.3655909,215.44981 88.2555909,216.88981 C88.0243478,219.137012 89.0218103,221.334487 90.8655909,222.63981 C94.6455909,225.33981 99.2055909,227.50981 101.435591,229.01981 C104.375591,231.01981 101.435591,234.27981 97.8255909,234.49981 C94.4455909,234.70981 89.0355909,231.77981 87.6555909,230.62981 C88.3391385,231.537428 88.8694857,232.55083 89.2255909,233.62981 C89.8155909,235.92981 89.2255909,237.27981 88.1655909,236.79981 C87.5655909,236.52981 86.8355909,235.61981 84.7655909,233.08981 C81.1755909,228.67981 80.4055909,226.69981 80.3655909,221.21981 C80.3655909,217.50981 80.0555909,198.37981 79.7555909,191.09981 C79.5655909,186.63981 79.6055909,176.94981 79.6855909,170.92981 C79.7655909,164.90981 80.6855909,158.21981 81.7955909,157.36981 Z" id="Path" fill="#FFA8A7"></path>
                    <path d="M48.9455909,138.13981 C48.9455909,138.13981 45.5755909,132.75981 47.9455909,127.58981 C50.3155909,122.41981 60.0055909,115.66981 71.0555909,120.46981 C81.5555909,125.03981 80.6255909,137.11981 80.6655909,142.58981 C80.7355909,147.76981 48.9455909,138.13981 48.9455909,138.13981 Z" id="Path" fill="#263238"></path>
                    <path d="M52.0255909,127.26981 C53.5555909,124.26981 63.2755909,119.47981 72.5155909,124.16981 C81.7555909,128.85981 80.6855909,141.48981 80.6855909,150.16981 L80.6855909,166.16981 C80.6855909,168.44981 75.3355909,171.58981 70.1955909,169.76981 L70.5655909,146.39981 C70.5655909,146.39981 72.0055909,132.12981 67.5655909,128.70981 C63.1255909,125.28981 52.0255909,127.26981 52.0255909,127.26981 Z" id="Path" fill="#263238"></path>
                    <path d="M70.5655909,139.81981 C71.1655909,140.17981 72.0255909,139.01981 72.7655909,138.23981 C73.5055909,137.45981 75.9355909,136.40981 77.1355909,138.94981 C78.3355909,141.48981 75.5755909,144.99981 73.9355909,146.13981 C72.9946125,146.958486 71.6325996,147.075692 70.5655909,146.42981 L70.4055909,156.28981 C70.4055909,156.28981 67.9755909,161.62981 62.1555909,162.41981 C56.3355909,163.20981 57.5255909,158.41981 59.4355909,156.04981 L59.4355909,152.43981 C57.9803317,152.750653 56.4844875,152.824939 55.0055909,152.65981 C54.2455909,152.45981 52.4255909,150.26981 51.2555909,147.81981 C49.9455909,145.05981 47.7555909,140.16981 49.7055909,131.89981 C51.7955909,123.01981 61.3355909,122.74981 67.0355909,126.32981 C72.7355909,129.90981 70.5655909,139.81981 70.5655909,139.81981 Z" id="Path" fill="#FFA8A7"></path>
                    <path d="M59.4455909,152.43981 C59.4455909,152.43981 64.8455909,151.34981 66.7255909,150.34981 C67.8371389,149.774446 68.7474157,148.874632 69.3355909,147.76981 C69.0478685,148.85873 68.5446047,149.87886 67.8555909,150.76981 C66.4755909,152.52981 59.4455909,153.82981 59.4455909,153.82981 L59.4455909,152.43981 Z" id="Path" fill="#F28F8F"></path>
                    <path d="M59.5055909,139.58981 C59.527557,140.187393 60.0268749,140.655703 60.6246386,140.639363 C61.2224023,140.623024 61.6953919,140.128137 61.6846804,139.530246 C61.6739689,138.932354 61.1835563,138.454727 60.5855909,138.45981 C60.2920638,138.465037 60.0128047,138.58738 59.8099653,138.79961 C59.6071259,139.01184 59.4975378,139.296347 59.5055909,139.58981 L59.5055909,139.58981 Z" id="Path" fill="#263238"></path>
                    <path d="M60.6555909,135.49981 L62.9655909,136.77981 C63.3052002,136.120623 63.0675703,135.310921 62.4255909,134.93981 C62.1178215,134.772969 61.7554602,134.73838 61.4216846,134.843981 C61.087909,134.949582 60.8113865,135.186304 60.6555909,135.49981 L60.6555909,135.49981 Z" id="Path" fill="#263238"></path>
                    <path d="M72.4855909,118.38981 L73.1155909,122.20981 C74.1941647,122.021343 74.920696,121.000633 74.7455909,119.91981 C74.6563161,119.413277 74.3654963,118.964579 73.9395801,118.676237 C73.5136639,118.387896 72.9890445,118.284549 72.4855909,118.38981 L72.4855909,118.38981 Z" id="Path" fill="#263238"></path>
                    <path d="M77.1055909,120.27981 L73.5655909,121.81981 C74.0196613,122.806621 75.1783868,123.250577 76.1755909,122.81981 C76.6419409,122.613287 77.0043673,122.226149 77.1797271,121.74721 C77.3550868,121.26827 77.3283286,120.738636 77.1055909,120.27981 L77.1055909,120.27981 Z" id="Path" fill="#263238"></path>
                    <path d="M60.2455909,146.26981 L57.7755909,147.19981 C57.8821268,147.536702 58.1221869,147.815149 58.439718,147.970135 C58.757249,148.12512 59.1244537,148.143076 59.4555909,148.01981 C60.1442323,147.741282 60.4921741,146.970525 60.2455909,146.26981 L60.2455909,146.26981 Z" id="Path" fill="#F28F8F"></path>
                    <path d="M49.8655909,136.40981 L51.9755909,134.77981 C51.7732219,134.492702 51.4625246,134.300533 51.1152615,134.247688 C50.7679984,134.194844 50.4142025,134.285894 50.1355909,134.49981 C49.5513599,134.963012 49.432644,135.802817 49.8655909,136.40981 Z" id="Path" fill="#263238"></path>
                    <path d="M50.5155909,139.27981 C50.5428975,139.868994 51.0378455,140.327303 51.6273874,140.309306 C52.2169292,140.291309 52.6829993,139.803661 52.6743158,139.213909 C52.6656322,138.624156 52.185407,138.150442 51.5955909,138.14981 C50.986448,138.166176 50.5043916,138.67055 50.5155909,139.27981 Z" id="Path" fill="#263238"></path>
                    <polygon id="Path" fill="#F28F8F" points="55.0155909 138.78981 55.8955909 145.23981 52.3355909 144.73981"></polygon>
                    <path d="M51.9755909,126.30981 C51.9755909,126.30981 56.8655909,136.77981 71.4355909,135.30981 C71.4355909,135.30981 73.1155909,128.00981 67.3655909,125.18981 C61.6155909,122.36981 54.7355909,122.20981 51.9755909,126.30981 Z" id="Path" fill="#263238"></path>
                    <path d="M67.0255909,133.99981 C68.7355909,134.21981 69.2355909,136.82981 68.8155909,138.99981 C68.3955909,141.16981 70.4555909,141.34981 72.0655909,138.99981 C73.1012617,137.199061 73.6878133,135.175286 73.7755909,133.09981 L67.0255909,133.99981 Z" id="Path" fill="#263238"></path>
                    <path d="M47.9755909,215.39981 C47.9755909,215.39981 56.8555909,209.39981 59.4455909,208.20981 C59.4455909,208.20981 54.4455909,207.20981 52.0255909,203.92981 C52.4322964,205.482567 53.1463864,206.937951 54.1255909,208.20981 L33.2155909,222.33981 L47.9755909,215.39981 Z" id="Path" fill="#00A5F5"></path>
                    <path d="M47.9755909,215.39981 C47.9755909,215.39981 56.8555909,209.39981 59.4455909,208.20981 C59.4455909,208.20981 54.4455909,207.20981 52.0255909,203.92981 C52.4322964,205.482567 53.1463864,206.937951 54.1255909,208.20981 L33.2155909,222.33981 L47.9755909,215.39981 Z" id="Path" fill="#000000" opacity="0.4"></path>
                </g>
                <g id="freepik--speech-bubbles--inject-47" transform="translate(0.000000, 38.330502)">
                    <path d="M314.62,87.4993072 L253.26,52.0793072 C251.68,51.1693072 250.4,51.8993072 250.4,53.7293072 L250.4,140.059307 C250.495873,142.088317 251.559646,143.948061 253.26,145.059307 L314.62,180.479307 C316.2,181.389307 317.48,180.649307 317.48,178.829307 L317.48,92.4493072 C317.370065,90.4377913 316.307762,88.59919 314.62,87.4993072 L314.62,87.4993072 Z" id="Path" fill="#E0E0E0"></path>
                    <path d="M235.38,124.359307 L254.87,135.619307 L254.87,120.129307 L235.8,122.329307 C233.99,122.539307 233.8,123.449307 235.38,124.359307 Z" id="Path" fill="#E0E0E0"></path>
                    <path d="M261.73,69.8693072 L306.15,95.5193072 C307.542202,96.3905856 308.428456,97.8800874 308.53,99.5193072 C308.53,100.939307 307.47,101.519307 306.15,100.719307 L261.73,75.0793072 C260.340228,74.205655 259.45479,72.7175237 259.35,71.0793072 C259.38,69.6493072 260.38,69.1093072 261.73,69.8693072 Z" id="Path" fill="#F0F0F0"></path>
                    <path d="M261.71,85.3493072 L306.13,110.999307 C307.523592,111.870687 308.412979,113.359201 308.52,114.999307 C308.52,116.419307 307.45,116.999307 306.13,116.199307 L261.71,90.5593072 C260.323834,89.6821412 259.439599,88.1960306 259.33,86.5593072 C259.38,85.1293072 260.38,84.5893072 261.71,85.3493072 Z" id="Path" fill="#F0F0F0"></path>
                    <path d="M261.73,100.809307 L306.15,126.459307 C307.528499,127.320454 308.41284,128.788163 308.53,130.409307 C308.53,131.839307 307.47,132.409307 306.15,131.619307 L261.73,106.009307 C260.351501,105.14816 259.46716,103.680451 259.35,102.059307 C259.38,100.629307 260.38,100.089307 261.73,100.809307 Z" id="Path" fill="#F0F0F0"></path>
                    <path d="M261.73,116.339307 L306.15,141.979307 C307.539772,142.852959 308.42521,144.341091 308.53,145.979307 C308.53,147.409307 307.47,147.979307 306.15,147.189307 L261.73,121.539307 C260.337798,120.668029 259.451544,119.178527 259.35,117.539307 C259.38,116.119307 260.38,115.579307 261.73,116.339307 Z" id="Path" fill="#F0F0F0"></path>
                    <path d="M261.73,131.809307 L306.15,157.459307 C307.542202,158.330586 308.428456,159.820087 308.53,161.459307 C308.53,162.879307 307.47,163.459307 306.15,162.659307 L261.73,137.019307 C260.340228,136.145655 259.45479,134.657524 259.35,133.019307 C259.38,131.609307 260.38,131.069307 261.73,131.809307 Z" id="Path" fill="#F0F0F0"></path>
                    <path d="M64.21,35.8093072 L2.86,0.389307174 C1.28,-0.520692826 0,0.219307174 0,2.03930717 L0,88.4093072 C0.0942501616,90.4387892 1.15841652,92.2992199 2.86,93.4093072 L64.21,128.809307 C65.79,129.719307 67.07,128.979307 67.07,127.159307 L67.07,40.8093072 C66.9757498,38.7798252 65.9115835,36.9193945 64.21,35.8093072 L64.21,35.8093072 Z" id="Path" fill="#E0E0E0"></path>
                    <path d="M11.32,18.2293072 L55.74,43.8693072 C57.1335916,44.7406871 58.0229789,46.2292014 58.13,47.8693072 C58.13,49.2993072 57.06,49.8693072 55.74,49.0793072 L11.32,23.4293072 C9.93143529,22.5544775 9.04640068,21.0670244 8.94,19.4293072 C8.94,18.0093072 10.01,17.4693072 11.32,18.2293072 Z" id="Path" fill="#F0F0F0"></path>
                    <path d="M11.31,33.7093072 L55.73,59.3493072 C57.1185647,60.2241368 58.0035993,61.7115899 58.11,63.3493072 C58.11,64.7793072 57.04,65.3493072 55.73,64.5493072 L11.31,38.9093072 C9.91779795,38.0380287 9.03154436,36.5485269 8.93,34.9093072 C8.93,33.4893072 9.99,32.9493072 11.31,33.7093072 Z" id="Path" fill="#F0F0F0"></path>
                    <path d="M11.32,49.1993072 L55.74,74.8093072 C57.1335916,75.6806871 58.0229789,77.1692014 58.13,78.8093072 C58.13,80.2293072 57.06,80.8093072 55.74,80.0093072 L11.32,54.3693072 C9.9338343,53.4921412 9.04959852,52.0060306 8.94,50.3693072 C8.94,48.9793072 10.01,48.4393072 11.32,49.1993072 Z" id="Path" fill="#F0F0F0"></path>
                    <path d="M11.32,64.6893072 L55.74,90.3393072 C57.1211322,91.1993605 58.0090164,92.6667842 58.13,94.2893072 C58.13,95.7193072 57.06,96.2893072 55.74,95.4993072 L11.32,69.8093072 C9.94504551,68.9446771 9.06189548,67.4789449 8.94,65.8593072 C8.94,64.4693072 10.01,63.9293072 11.32,64.6893072 Z" id="Path" fill="#F0F0F0"></path>
                    <path d="M11.32,80.1893072 L55.74,105.809307 C57.1335916,106.680687 58.0229789,108.169201 58.13,109.809307 C58.13,111.229307 57.06,111.809307 55.74,111.009307 L11.32,85.3693072 C9.93143529,84.4944775 9.04640068,83.0070244 8.94,81.3693072 C8.94,79.9693072 10.01,79.4293072 11.32,80.1893072 Z" id="Path" fill="#F0F0F0"></path>
                    <path d="M62.6,117.539307 L80.05,127.609307 C80.5003713,127.860621 81.0652377,127.76189 81.4036586,127.372706 C81.7420795,126.983522 81.7614172,126.410418 81.45,125.999307 L62.6,102.049307 L62.6,117.539307 Z" id="Path" fill="#E0E0E0"></path>
                </g>
            </g>
        </g>
    </g>
</svg>